<svg version="1.1" xmlns="http://www.w3.org/2000/svg" viewBox="0 0 2297.8471642973063 799.800802907233" width="4595.694328594613" height="1599.601605814466">
  <!-- svg-source:excalidraw -->
  
  <defs>
    <style class="style-fonts">
      @font-face {
        font-family: "Virgil";
        src: url("https://excalidraw.com/Virgil.woff2");
      }
      @font-face {
        font-family: "Cascadia";
        src: url("https://excalidraw.com/Cascadia.woff2");
      }
    </style>
    
  </defs>
  <g stroke-opacity="0.3" fill-opacity="0.3" stroke-linecap="round" transform="translate(11.680170440330926 80.22178876951654) rotate(0 412.76802765004686 354.78950706885826)"><path d="M7.86 8.16 C7.86 8.16, 7.86 8.16, 7.86 8.16 M7.86 8.16 C7.86 8.16, 7.86 8.16, 7.86 8.16 M4.85 36.01 C11.24 23.45, 27.37 15.75, 34.37 2.05 M4.85 36.01 C15.18 24.91, 26.06 13.27, 34.37 2.05 M4.46 60.85 C18.93 43.84, 30.23 32.86, 55.63 1.98 M4.46 60.85 C25 37.41, 45.06 17.63, 55.63 1.98 M4.72 84.93 C25.58 60.56, 55.21 27.64, 76.89 1.91 M4.72 84.93 C24.81 63.77, 42.69 38.91, 76.89 1.91 M4.99 109.01 C37.93 75.86, 67.32 34.66, 98.15 1.85 M4.99 109.01 C28.04 82.19, 49.58 56.66, 98.15 1.85 M4.6 133.85 C40.89 91.39, 69.08 55.87, 119.41 1.78 M4.6 133.85 C45.36 84.4, 85.36 38.09, 119.41 1.78 M4.87 157.93 C53.98 102.2, 98.05 53.85, 140.67 1.71 M4.87 157.93 C33.45 125.37, 62.86 93.23, 140.67 1.71 M4.48 182.77 C55.73 127.46, 103.58 67.6, 161.28 2.39 M4.48 182.77 C40.5 143.13, 71.87 103.13, 161.28 2.39 M4.74 206.85 C45.9 160.43, 84.31 117.02, 182.54 2.32 M4.74 206.85 C56.58 150.74, 103.73 94.63, 182.54 2.32 M5.01 230.93 C65.92 163.87, 123.76 97.28, 203.8 2.26 M5.01 230.93 C69.33 160.86, 131.9 91.12, 203.8 2.26 M4.62 255.77 C50.38 208.05, 96.81 152.69, 225.06 2.19 M4.62 255.77 C75.42 169.25, 149.61 83.43, 225.06 2.19 M4.89 279.85 C62.72 212.12, 118.5 147.8, 246.32 2.12 M4.89 279.85 C87.33 181.93, 171.45 83.57, 246.32 2.12 M4.5 304.69 C87.14 210, 170.76 113.02, 267.58 2.05 M4.5 304.69 C63.83 238.93, 124.24 170.5, 267.58 2.05 M4.76 328.77 C70.58 248.25, 140.79 168.96, 288.84 1.98 M4.76 328.77 C72.55 253.84, 135.16 180.64, 288.84 1.98 M5.03 352.85 C73.95 276.93, 144.95 195.36, 310.1 1.91 M5.03 352.85 C93.26 256.4, 177.73 157.12, 310.1 1.91 M4.64 377.69 C123.17 237.7, 245.56 97.15, 331.36 1.84 M4.64 377.69 C99.69 271.44, 191.74 165.88, 331.36 1.84 M4.91 401.77 C82.72 314.24, 162.69 222.88, 352.62 1.77 M4.91 401.77 C137.52 249.48, 270.7 97.2, 352.62 1.77 M4.52 426.6 C81.03 332.47, 157.02 242.71, 373.88 1.7 M4.52 426.6 C103.23 311.39, 203.54 194.74, 373.88 1.7 M4.78 450.69 C96.06 350.34, 185.19 242.57, 394.48 2.39 M4.78 450.69 C129.41 313.06, 251.28 174.23, 394.48 2.39 M5.05 474.77 C118.36 344.55, 229.53 218.1, 415.74 2.32 M5.05 474.77 C156.81 298.81, 312.22 121.09, 415.74 2.32 M4.66 499.6 C173.69 301.03, 346.91 102.05, 437 2.25 M4.66 499.6 C174.79 305, 343.22 110.99, 437 2.25 M4.93 523.69 C178.69 322.12, 352.01 120.58, 458.26 2.18 M4.93 523.69 C183.36 316.2, 359.44 111.95, 458.26 2.18 M4.54 548.52 C151.29 385.54, 290.9 221.61, 479.52 2.11 M4.54 548.52 C120.59 413.88, 237.78 278.07, 479.52 2.11 M4.8 572.6 C165.8 391.76, 324 207.42, 500.78 2.04 M4.8 572.6 C168.49 378.44, 334.66 186.36, 500.78 2.04 M5.07 596.69 C177.76 395.26, 353.8 194.91, 522.04 1.98 M5.07 596.69 C130.88 451.31, 257.18 305.12, 522.04 1.98 M4.68 621.52 C206.96 394.17, 405.33 166.77, 543.3 1.91 M4.68 621.52 C145.54 460.8, 283.58 301.65, 543.3 1.91 M4.94 645.6 C194.3 419.57, 393.03 194.05, 564.56 1.84 M4.94 645.6 C148.87 481.84, 293.94 314.71, 564.56 1.84 M4.55 670.44 C215.91 429.04, 419.73 192.53, 585.82 1.77 M4.55 670.44 C135.63 523.37, 262.14 379.31, 585.82 1.77 M4.82 694.52 C247.52 423.23, 484.61 149.84, 607.08 1.7 M4.82 694.52 C180.66 498.21, 353.36 298.22, 607.08 1.7 M14.93 707.28 C158.99 544.75, 295.36 384.34, 627.69 2.38 M14.93 707.28 C200.98 495.99, 386.28 283.69, 627.69 2.38 M32.91 710.99 C255.23 457.08, 479.47 201.68, 648.95 2.32 M32.91 710.99 C197.35 528.04, 358.58 344.11, 648.95 2.32 M54.17 710.92 C214 526.15, 374 338.62, 670.21 2.25 M54.17 710.92 C192.82 548.42, 329.95 390.2, 670.21 2.25 M75.43 710.85 C296.89 450.98, 525.95 193.17, 691.47 2.18 M75.43 710.85 C206 555.98, 338.65 403.94, 691.47 2.18 M96.69 710.78 C264.92 514, 430.83 321.77, 712.73 2.11 M96.69 710.78 C288.29 488.52, 477.98 269.09, 712.73 2.11 M117.95 710.71 C334.57 462.25, 555.91 206.88, 733.99 2.04 M117.95 710.71 C318.23 478.05, 517.25 250.26, 733.99 2.04 M139.21 710.64 C370.11 438.67, 609.79 163.21, 755.25 1.97 M139.21 710.64 C331.12 491.96, 522.88 271.44, 755.25 1.97 M160.47 710.57 C354.03 496.01, 544.82 277.07, 776.51 1.9 M160.47 710.57 C326.96 518.45, 492.02 328.03, 776.51 1.9 M181.73 710.51 C344.77 523.45, 508.84 331.96, 797.11 2.59 M181.73 710.51 C306.59 566.99, 433.48 419.4, 797.11 2.59 M202.99 710.44 C332.11 555.55, 464.18 403.2, 813.78 7.8 M202.99 710.44 C365.71 529.79, 526.9 343.18, 813.78 7.8 M224.25 710.37 C406.73 494.29, 593.96 280.23, 825.2 19.05 M224.25 710.37 C461.92 443.11, 695.9 175.49, 825.2 19.05 M245.51 710.3 C427.05 492.85, 613.48 279.29, 830.71 37.1 M245.51 710.3 C383.12 552.35, 523.77 390.93, 830.71 37.1 M266.11 710.98 C391.01 566.8, 519.61 417.6, 830.98 61.18 M266.11 710.98 C426.42 528.39, 583.49 347.4, 830.98 61.18 M287.37 710.91 C434.51 550.14, 576.11 384.47, 831.25 85.26 M287.37 710.91 C423.54 549.54, 560.82 390.91, 831.25 85.26 M308.63 710.85 C450.97 552.87, 592.22 390.63, 830.86 110.1 M308.63 710.85 C474.61 525.12, 636.42 339.43, 830.86 110.1 M329.89 710.78 C503.41 513.28, 675.8 314.9, 831.12 134.18 M329.89 710.78 C468.19 550.79, 606.5 391.83, 831.12 134.18 M351.15 710.71 C455.5 593.85, 559.34 477.53, 830.73 159.02 M351.15 710.71 C518.9 515.53, 685.94 322.39, 830.73 159.02 M372.41 710.64 C498.76 572.5, 621.42 429.97, 831 183.1 M372.41 710.64 C467.29 598.49, 562.16 488.76, 831 183.1 M393.67 710.57 C551.06 531.8, 705.4 351.3, 831.27 207.18 M393.67 710.57 C515.37 568.41, 638.48 427.03, 831.27 207.18 M414.94 710.5 C574.44 521.52, 734.72 337.99, 830.88 232.02 M414.94 710.5 C528.85 586.07, 640.39 459.67, 830.88 232.02 M436.2 710.43 C566.04 554.53, 700.24 403.75, 831.14 256.1 M436.2 710.43 C516.74 617.45, 599.93 523.81, 831.14 256.1 M457.46 710.36 C557.34 598.22, 655.96 482.05, 830.75 280.93 M457.46 710.36 C606.57 540.18, 754.22 371.03, 830.75 280.93 M478.72 710.29 C584.64 586.95, 694.81 462.56, 831.02 305.02 M478.72 710.29 C572.39 609.28, 662.44 504.74, 831.02 305.02 M499.32 710.98 C599.74 596.66, 699.85 482.46, 831.29 329.1 M499.32 710.98 C583.56 614.4, 668.46 515.76, 831.29 329.1 M520.58 710.91 C636.79 578.34, 747.48 451.18, 830.9 353.93 M520.58 710.91 C636.89 574.23, 755.37 439.58, 830.9 353.93 M541.84 710.84 C632.26 601.38, 723.74 495.21, 831.16 378.01 M541.84 710.84 C609.26 635.36, 677.82 556.48, 831.16 378.01 M563.1 710.77 C644.51 615.42, 725.09 515.82, 830.77 402.85 M563.1 710.77 C657.51 600.46, 750.64 494.06, 830.77 402.85 M584.36 710.7 C677.17 601.63, 773.08 491.06, 831.04 426.93 M584.36 710.7 C644.55 641.01, 703.97 572.59, 831.04 426.93 M605.62 710.63 C675.24 631.6, 743.44 553.45, 831.31 451.01 M605.62 710.63 C682.32 618.26, 761.13 529.14, 831.31 451.01 M626.88 710.57 C703.7 624.3, 781.97 538.45, 830.92 475.85 M626.88 710.57 C688.24 641.21, 749.37 571.69, 830.92 475.85 M648.14 710.5 C685.5 665.5, 723.82 620.29, 831.18 499.93 M648.14 710.5 C682.65 666.11, 719.86 622.13, 831.18 499.93 M669.4 710.43 C726.04 635.1, 790.58 568.88, 830.79 524.77 M669.4 710.43 C725.2 641.93, 784.18 576.66, 830.79 524.77 M690.66 710.36 C723.73 669.86, 753.78 634.34, 831.06 548.85 M690.66 710.36 C739.44 655.67, 787.61 601.16, 831.06 548.85 M711.92 710.29 C756.43 656.24, 801.34 609.33, 831.32 572.93 M711.92 710.29 C747 667.47, 782.73 627.51, 831.32 572.93 M732.53 710.98 C762.64 678.71, 788.76 644.02, 830.93 597.77 M732.53 710.98 C755.15 684.16, 778.07 659.46, 830.93 597.77 M753.79 710.91 C778.76 682.83, 797.67 652.79, 831.2 621.85 M753.79 710.91 C777.68 682.4, 798.9 656.62, 831.2 621.85 M775.05 710.84 C786.39 695.52, 801.1 683.61, 830.81 646.69 M775.05 710.84 C792.76 691.74, 811.96 669.37, 830.81 646.69 M795.65 711.52 C807.68 694.88, 820.22 677.77, 831.08 670.77 M795.65 711.52 C806.84 701.33, 816.55 686.17, 831.08 670.77" stroke="#b2f2bb" stroke-width="2" fill="none"></path><path d="M32 0 M32 0 C233.64 -1.03, 433.56 -1.56, 793.54 0 M32 0 C327.41 -2.33, 623.28 -1.29, 793.54 0 M793.54 0 C810.95 -2.53, 821.89 13.32, 825.54 32 M793.54 0 C810.38 -2.04, 822.3 11.98, 825.54 32 M825.54 32 C824.91 165.84, 824.48 299.6, 825.54 677.58 M825.54 32 C824.79 225.7, 824.81 420.26, 825.54 677.58 M825.54 677.58 C826.63 695.02, 811.88 712.92, 793.54 709.58 M825.54 677.58 C821.84 699.33, 812.05 709.83, 793.54 709.58 M793.54 709.58 C594.41 708.75, 393.41 708.67, 32 709.58 M793.54 709.58 C603 703.98, 412.83 704.19, 32 709.58 M32 709.58 C14.5 713.52, 3.89 698.74, 0 677.58 M32 709.58 C9.44 713.33, -3.28 703.09, 0 677.58 M0 677.58 C-4.44 485.06, -4.89 290.33, 0 32 M0 677.58 C0.58 518.15, -0.17 359.63, 0 32 M0 32 C0.14 11.66, 8.07 -0.07, 32 0 M0 32 C-3.66 12.14, 12.17 -1.11, 32 0" stroke="#2f9e44" stroke-width="4" fill="none"></path></g><g stroke-linecap="round"><g stroke-opacity="0.6" fill-opacity="0.6" transform="translate(169.5616680343195 317.7915521595105) rotate(0 20.30054594191043 58.99963087945539)"><path d="M-0.61 -1.9 C6.59 17.47, 34.73 96.35, 41.21 116.55 M4.26 3.24 C11.35 23.02, 32.9 101.28, 39.52 119.9" stroke="#1e1e1e" stroke-width="2" fill="none"></path></g><g stroke-opacity="0.6" fill-opacity="0.6" transform="translate(169.5616680343195 317.7915521595105) rotate(0 20.30054594191043 58.99963087945539)"><path d="M35.89 117.94 L32.36 112.78 L42.72 106.63 L43.29 117.41" stroke="none" stroke-width="0" fill="#1e1e1e" fill-rule="evenodd"></path><path d="M37.48 120.98 C36.63 115.19, 37.24 114.91, 28.73 111.04 M39.86 119.13 C35.54 117.76, 33.45 111.96, 28.31 107.48 M29.99 108.4 C35.7 108.61, 38.45 105.4, 41.5 104.73 M28.29 109.9 C33.26 108.34, 38.53 106.14, 40.5 106.29 M43.16 105.03 C40.62 106.01, 39.01 108.54, 37.59 118.06 M42.97 106.05 C41.47 110.51, 39.46 114.36, 40.96 120.94 M39.52 119.9 C39.52 119.9, 39.52 119.9, 39.52 119.9 M39.52 119.9 C39.52 119.9, 39.52 119.9, 39.52 119.9" stroke="#1e1e1e" stroke-width="2" fill="none"></path></g></g><mask></mask><g stroke-linecap="round" transform="translate(74.71169801130452 199.56532365386352) rotate(0 48.572273317862994 39.20894352164842)"><path d="M0.7 -1.66 C36.28 0.85, 70.36 1.26, 98.81 1.66 M0.69 -0.18 C30.74 -1.13, 60.73 -1.72, 97.09 -0.76 M96.63 1.73 C96.23 17.88, 95.41 34.55, 98.12 79.92 M97.11 0.35 C98.15 28.17, 97.82 57.12, 97.93 78.17 M95.63 77.72 C76.03 80.14, 54.52 77.22, 1.7 77.93 M96.96 78.68 C74.49 79.47, 49.53 79.65, -0.57 77.51 M0.03 77.48 C-0.47 60.37, -1.37 42.55, -0.77 -0.9 M0.29 79.4 C0.57 47.29, -0.19 15.79, -0.71 -0.42" stroke="#000000" stroke-width="1" fill="none"></path></g><g stroke-linecap="round" transform="translate(72.37086556225086 226.48489681798034) rotate(0 26.919573164116855 12.874578469795011)"><path d="M6.44 0 M6.44 0 C16.95 0.65, 25.26 1.07, 47.4 0 M6.44 0 C21.24 0.7, 38.53 -0.22, 47.4 0 M47.4 0 C52.69 -0.81, 54.34 0.15, 53.84 6.44 M47.4 0 C51.57 -1.75, 52.2 0.65, 53.84 6.44 M53.84 6.44 C53.54 9.13, 53.02 11.04, 53.84 19.31 M53.84 6.44 C54.15 11.43, 53.91 15.64, 53.84 19.31 M53.84 19.31 C55.33 22.15, 52.53 24.41, 47.4 25.75 M53.84 19.31 C55.65 23.04, 49.84 27.55, 47.4 25.75 M47.4 25.75 C35.62 27.4, 23.45 24.48, 6.44 25.75 M47.4 25.75 C32.11 26.39, 15.68 25.78, 6.44 25.75 M6.44 25.75 C4.1 26.16, -0.68 24.36, 0 19.31 M6.44 25.75 C0.83 23.67, -1.89 25.63, 0 19.31 M0 19.31 C0.14 14.07, -0.44 8.98, 0 6.44 M0 19.31 C-0.09 16.05, 0.25 13.21, 0 6.44 M0 6.44 C0.78 1.65, 1.42 -1.73, 6.44 0 M0 6.44 C-1.63 1.19, 1.6 2.22, 6.44 0" stroke="#000000" stroke-width="1" fill="none"></path></g><g transform="translate(89.92710893015317 286.7613323811115) rotate(0 35.69667053222656 15.215410918848647)"><text x="0" y="0" font-family="Virgil, Segoe UI Emoji" font-size="23.408324490536376px" fill="#000000" text-anchor="start" style="white-space: pre;" direction="ltr" dominant-baseline="text-before-edge">Wallet</text></g><g stroke-linecap="round" transform="translate(211.82885128479967 446.40406628927536) rotate(0 68.86230064008984 104.4947147419448)"><path d="M0.1 1.45 L138.24 -1.39 L136.72 209.33 L-0.4 210.12" stroke="none" stroke-width="0" fill="#fff"></path><path d="M0.66 1.57 C47.95 -0.24, 97.53 -2.4, 138.56 -1.34 M0.78 -0.08 C51.41 0.76, 104.42 2.01, 137.71 -0.56 M138.57 1.55 C136.94 80.91, 139.01 161.24, 137.12 209.66 M138.5 0.52 C136.07 50.28, 136.15 100.97, 137.42 208.24 M137.27 209.32 C102.29 212.24, 66.48 209.79, -0.73 207.25 M138.69 209.03 C106.24 207.79, 74.85 208.15, 0.9 209.46 M1.41 208.07 C0.91 166.92, -0.56 124.49, -0.56 -0.09 M0.75 209.14 C1.46 148.21, 1.5 86.82, 0.3 -0.31" stroke="#000000" stroke-width="2" fill="none"></path></g><g stroke-linecap="round"><g transform="translate(228.4083601348123 534.637631103258) rotate(0 48.843024458973446 -3.241852515902231)"><path d="M0.94 -0.04 C14.78 0.09, 68.14 2.2, 83.86 1.22 C99.58 0.25, 93.36 -4.77, 95.27 -5.88 M-0.02 -1.11 C13.62 -1.34, 66.85 0.71, 83.13 -0.43 C99.42 -1.57, 95.7 -6.78, 97.71 -7.96" stroke="#000000" stroke-width="1" fill="none"></path></g></g><mask></mask><g stroke-linecap="round"><g transform="translate(232.23774256736095 469.690872949105) rotate(0 47.4535414864219 -3.131337589405497)"><path d="M0.42 0.9 C5.91 0.02, 18.4 -5.18, 33.87 -5.29 C49.34 -5.39, 83.27 -0.34, 93.25 0.27 M-0.82 0.32 C4.96 -0.91, 20.04 -6.83, 36.13 -7.15 C52.22 -7.46, 86.1 -2.59, 95.72 -1.58" stroke="#000000" stroke-width="1" fill="none"></path></g></g><mask></mask><g stroke-linecap="round"><g transform="translate(232.07963531039798 608.7980129893899) rotate(0 50.29007007209063 0.23965639949389583)"><path d="M-0.87 0.5 C8.01 0.42, 40.68 -0.13, 53.71 0.42 C66.75 0.97, 69.52 4.57, 77.35 3.81 C85.19 3.05, 97.13 -2.77, 100.71 -4.15 M0.87 -0.28 C10.1 -0.76, 43.41 -2.02, 56 -1.21 C68.6 -0.39, 68.86 4.93, 76.43 4.62 C84.01 4.3, 97.43 -1.61, 101.45 -3.1" stroke="#000000" stroke-width="1" fill="none"></path></g></g><mask></mask><g stroke-linecap="round"><g transform="translate(225.50751854291826 632.0047307170454) rotate(0 55.8028330305747 -2.2118007163103925)"><path d="M-0.8 0.95 C2.79 0.3, 14.85 -2.91, 20.69 -3.38 C26.53 -3.84, 21.92 -2.54, 34.24 -1.83 C46.55 -1.13, 81.55 1.15, 94.58 0.85 C107.61 0.54, 109.46 -2.62, 112.41 -3.66 M0.98 0.4 C4.46 -0.17, 14.09 -2.19, 19.58 -2.35 C25.08 -2.51, 21.5 -1.25, 33.96 -0.57 C46.42 0.11, 81.51 2.7, 94.35 1.73 C107.19 0.76, 107.77 -5.55, 111 -6.37" stroke="#000000" stroke-width="1" fill="none"></path></g></g><mask></mask><g stroke-linecap="round"><g transform="translate(226.09545605242016 500.77710576960817) rotate(0 49.03908378028595 1.4645377428256552)"><path d="M-0.3 -0.97 C6.25 -1.35, 22.45 -2.06, 38.49 -1.32 C54.54 -0.58, 86.21 2.42, 95.96 3.47 M1.75 1.14 C8.29 0.87, 21.94 -0.4, 38.04 0.17 C54.14 0.74, 88.5 4.1, 98.37 4.57" stroke="#000000" stroke-width="1" fill="none"></path></g></g><mask></mask><g stroke-linecap="round"><g transform="translate(226.31731990554528 571.953332764472) rotate(0 48.5293934215494 1.0227659891125427)"><path d="M0.94 -0.1 C3.62 0.49, 9.68 2.54, 15.8 2.53 C21.92 2.52, 24.15 -0.26, 37.66 -0.14 C51.17 -0.03, 86.81 2.59, 96.85 3.22 M-0.02 -1.19 C3.06 -0.36, 11.87 3.97, 18.03 3.85 C24.2 3.73, 23.78 -1.94, 36.95 -1.92 C50.13 -1.9, 87.08 3.01, 97.08 3.97" stroke="#000000" stroke-width="1" fill="none"></path></g></g><mask></mask><g transform="translate(202.0932700092223 660.389422483971) rotate(0 82.03125 50.40000000000002)"><text x="82.03125" y="0" font-family="Cascadia, Segoe UI Emoji" font-size="28px" fill="#000000" text-anchor="middle" style="white-space: pre;" direction="ltr" dominant-baseline="text-before-edge">Sender.sol</text><text x="82.03125" y="33.6" font-family="Cascadia, Segoe UI Emoji" font-size="28px" fill="#000000" text-anchor="middle" style="white-space: pre;" direction="ltr" dominant-baseline="text-before-edge">Smart</text><text x="82.03125" y="67.2" font-family="Cascadia, Segoe UI Emoji" font-size="28px" fill="#000000" text-anchor="middle" style="white-space: pre;" direction="ltr" dominant-baseline="text-before-edge">Contract</text></g><g stroke-opacity="0.6" fill-opacity="0.6" transform="translate(210.7720602357411 75.4203670910249) rotate(0 193.7305908203125 34.724840749442535)"><text x="193.7305908203125" y="0" font-family="Virgil, Segoe UI Emoji" font-size="55.55974519910805px" fill="#f08c00" text-anchor="middle" style="white-space: pre;" direction="ltr" dominant-baseline="text-before-edge">Avalanche Fuji</text></g><g stroke-opacity="0.6" fill-opacity="0.6" transform="translate(10 405.0609336796686) rotate(0 93.75 24)"><text x="93.75" y="0" font-family="Cascadia, Segoe UI Emoji" font-size="20px" fill="#e03131" text-anchor="middle" style="white-space: pre;" direction="ltr" dominant-baseline="text-before-edge">Deposit CCIP-BnM</text><text x="93.75" y="24" font-family="Cascadia, Segoe UI Emoji" font-size="20px" fill="#e03131" text-anchor="middle" style="white-space: pre;" direction="ltr" dominant-baseline="text-before-edge">Tokens</text></g><g stroke-linecap="round" transform="translate(504.5983376328694 224.5252053241071) rotate(0 68.86230064008984 104.4947147419448)"><path d="M-1.84 1 L138.86 -0.95 L139.71 207.74 L-0.88 209.27" stroke="none" stroke-width="0" fill="#fff"></path><path d="M1.65 -0.66 C48.51 1.58, 93.46 1.69, 137.55 0.71 M0.32 0.9 C46.98 -0.04, 91.97 0.62, 136.74 -0.6 M136.27 1.73 C135.61 77.17, 134.98 154.82, 139.08 210.6 M138.04 0.73 C136.54 67.8, 137.08 135.79, 137.27 209.27 M138.4 210.77 C85.55 206.49, 35.54 208.26, 0.02 209.53 M136.84 209.66 C104.58 208.45, 71.78 208.38, -1 208.33 M0.41 209.59 C1.53 162.69, 0.27 117, 1.74 0.33 M-0.48 209.32 C0.17 152.11, 1.33 97, 0.8 0.15" stroke="#000000" stroke-width="2" fill="none"></path></g><g stroke-linecap="round"><g transform="translate(521.177846482882 312.75877013808963) rotate(0 48.405766798243626 -2.9820344365537608)"><path d="M-0.4 0.53 C13.66 0.23, 68.17 0.4, 84.44 -0.77 C100.71 -1.94, 95.19 -5.62, 97.21 -6.49 M1.59 -0.24 C15.58 -0.51, 68.12 1.03, 84.02 0.2 C99.92 -0.63, 94.83 -4.42, 97 -5.23" stroke="#000000" stroke-width="1" fill="none"></path></g></g><mask></mask><g stroke-linecap="round"><g transform="translate(525.0072289154307 247.81201198393677) rotate(0 47.275929561644155 -2.4729688913234327)"><path d="M1 -1.09 C7.04 -2.16, 20.23 -6.03, 35.81 -5.89 C51.39 -5.75, 84.69 -1.08, 94.48 -0.26 M0.07 0.95 C6.07 0.03, 19.77 -3.86, 35.42 -4.41 C51.07 -4.97, 84 -3.11, 93.94 -2.38" stroke="#000000" stroke-width="1" fill="none"></path></g></g><mask></mask><g stroke-linecap="round"><g transform="translate(524.8491216584677 386.9191520242217) rotate(0 50.38377325861659 0.35423071887068325)"><path d="M1.07 -0.11 C10.06 0.06, 42.1 -0.87, 54.95 -0.11 C67.79 0.66, 70.62 4.96, 78.15 4.48 C85.69 4, 96.38 -1.47, 100.15 -2.97 M0.17 -1.21 C8.95 -1.32, 41.31 -3.15, 54.22 -2.01 C67.14 -0.87, 69.92 6.13, 77.65 5.64 C85.38 5.15, 96.91 -3.29, 100.6 -4.96" stroke="#000000" stroke-width="1" fill="none"></path></g></g><mask></mask><g stroke-linecap="round"><g transform="translate(518.277004890988 410.12586975187713) rotate(0 56.562490050910725 -1.3641496929202308)"><path d="M0.43 0.42 C3.83 -0.01, 15.94 -2.53, 21.48 -2.71 C27.03 -2.89, 21.18 -1.24, 33.68 -0.65 C46.18 -0.07, 83.45 1.43, 96.49 0.81 C109.53 0.18, 109.5 -3.36, 111.93 -4.41 M-0.81 -0.4 C2.39 -0.65, 15.14 -0.99, 20.8 -1.33 C26.45 -1.66, 20.37 -2.92, 33.11 -2.42 C45.86 -1.93, 83.8 1.91, 97.26 1.67 C110.73 1.43, 111.49 -3.03, 113.93 -3.85" stroke="#000000" stroke-width="1" fill="none"></path></g></g><mask></mask><g stroke-linecap="round"><g transform="translate(518.8649424004899 278.89824480443997) rotate(0 48.5860187005187 1.162708769167807)"><path d="M0.5 -0.3 C6.75 -0.39, 21.71 -0.76, 37.94 -0.13 C54.17 0.49, 88.11 2.71, 97.87 3.43 M-0.7 -1.5 C5.39 -1.94, 20.8 -2.69, 37.19 -1.69 C53.58 -0.68, 87.74 3.31, 97.63 4.51" stroke="#000000" stroke-width="1" fill="none"></path></g></g><mask></mask><g stroke-linecap="round"><g transform="translate(519.086806253615 350.0744717993037) rotate(0 47.40209651491888 1.4978379265084882)"><path d="M0.38 1.09 C3.25 1.55, 11.58 2.82, 17.71 2.49 C23.84 2.16, 24.19 -1, 37.19 -0.89 C50.18 -0.78, 85.58 2.53, 95.68 3.16 M-0.87 0.61 C1.88 1.27, 11.11 3.79, 17.29 3.79 C23.47 3.79, 23.23 0.59, 36.23 0.6 C49.23 0.62, 85.22 3.52, 95.3 3.89" stroke="#000000" stroke-width="1" fill="none"></path></g></g><mask></mask><g transform="translate(470.253381357292 438.51056151880266) rotate(0 106.640625 33.6)"><text x="106.640625" y="0" font-family="Cascadia, Segoe UI Emoji" font-size="28px" fill="#000000" text-anchor="middle" style="white-space: pre;" direction="ltr" dominant-baseline="text-before-edge">Router</text><text x="106.640625" y="33.6" font-family="Cascadia, Segoe UI Emoji" font-size="28px" fill="#000000" text-anchor="middle" style="white-space: pre;" direction="ltr" dominant-baseline="text-before-edge">SmartContract</text></g><g stroke-linecap="round"><g stroke-opacity="0.6" fill-opacity="0.6" transform="translate(377.9013459855544 450.48026573938) rotate(0 49.90674329149135 -59.57209705983044)"><path d="M1.53 2.78 C17.99 -17.91, 84.62 -101.55, 100.9 -121.92 M-1.09 1.82 C14.87 -18.62, 82.75 -97.54, 99.1 -118.48" stroke="#1e1e1e" stroke-width="2" fill="none"></path></g><g stroke-opacity="0.6" fill-opacity="0.6" transform="translate(377.9013459855544 450.48026573938) rotate(0 49.90674329149135 -59.57209705983044)"><path d="M101.53 -119.06 L94.73 -104.94 L85.75 -109.86 L100.38 -120.48" stroke="none" stroke-width="0" fill="#1e1e1e" fill-rule="evenodd"></path><path d="M102.07 -117.63 C97.55 -113.89, 98.77 -108.85, 93.52 -106.48 M99.19 -119.96 C97.31 -114.74, 96.82 -109.54, 96.04 -105.05 M93.76 -102.03 C94.81 -107.17, 90.55 -108.49, 84.83 -112.05 M94.67 -103.8 C91.76 -105.51, 90.12 -109.5, 84.56 -111.3 M86.25 -113.58 C91.49 -114.58, 91.16 -114.31, 101.21 -118.1 M86.66 -112.43 C90.95 -116.02, 96.1 -117.52, 97.86 -117.7 M99.1 -118.48 C99.1 -118.48, 99.1 -118.48, 99.1 -118.48 M99.1 -118.48 C99.1 -118.48, 99.1 -118.48, 99.1 -118.48" stroke="#1e1e1e" stroke-width="2" fill="none"></path></g></g><mask></mask><g stroke-linecap="round"><g stroke-opacity="0.6" fill-opacity="0.6" transform="translate(963.7054918771671 237.32017428250484) rotate(0 -6.764917608933274 74.58247148356386)" fill-rule="evenodd"><path d="M-89.92 27.84 C-89.92 27.84, -89.92 27.84, -89.92 27.84 M-89.92 27.84 C-89.92 27.84, -89.92 27.84, -89.92 27.84 M-89.95 32.85 C-87.07 30.25, -83.09 27.1, -81.45 25.72 M-89 32.95 C-86.95 31.15, -84.75 28.37, -81.94 25.24 M-88.96 38.5 C-84.57 33.38, -79.7 29.26, -77.26 22.21 M-89.69 40.27 C-85.33 35.53, -80.86 29.63, -75.26 24.11 M-90.39 46.43 C-83.81 41.07, -77.3 32.59, -66.32 18.8 M-89.92 47.02 C-80.4 35.72, -72.9 26.42, -67.14 19.9 M-91.73 53.98 C-81.19 40.1, -71.67 32.14, -62.16 19.6 M-90.98 52.26 C-81.46 43.88, -73.72 33.78, -60.84 19.44 M-90.39 57.18 C-75.59 41.89, -65.24 29.31, -55.28 16.33 M-89.65 58.89 C-76.3 42.09, -61.94 26.4, -53.97 16.69 M-89.02 65.71 C-75.62 45.97, -57.16 30.65, -44.88 15.44 M-90.16 65.07 C-76.99 49.46, -63.69 33.53, -45.97 13.92 M-89.94 70.65 C-75.94 53.54, -58.92 36.48, -39.12 12.74 M-90.15 70.49 C-79.4 58.46, -69.36 47.24, -39.91 12.77 M-91.53 75.21 C-72.74 53.95, -51.69 32.42, -32.96 8.47 M-90.36 77.46 C-68.12 53.42, -48.82 29.06, -31.66 9.8 M-88.51 81.3 C-75.81 63.84, -57.31 42.81, -23.74 5.74 M-90.48 83.96 C-70.15 60.27, -48.43 35.27, -25 7.31 M-90.42 89.43 C-73.43 70.65, -56.11 49.96, -16.35 4.85 M-90.99 89.97 C-62.92 60.72, -37.53 29.41, -16.17 4.14 M-90.61 94.06 C-60.92 60.6, -30.65 24.1, -10.82 1.71 M-91.6 95.24 C-57.87 60.09, -25.98 21.49, -10.92 2.5 M-91.31 102.5 C-61.34 67.15, -29.23 31.99, -4.12 2.94 M-89.78 100.65 C-68.52 79.39, -48.41 54.69, -3.73 1.52 M-92.6 106.28 C-71.24 85.38, -53.4 63.65, 2.89 3.5 M-91.14 108.01 C-65.52 80.96, -42.8 51.31, 1.77 1.33 M-90.88 113 C-51.01 69.34, -14.28 25.55, 4.3 5.07 M-91.37 114.36 C-60.8 79.91, -32 45.66, 6.24 3.84 M-87.27 116.47 C-64.4 90, -44.89 66.39, 9.52 5.88 M-86.03 114.5 C-53.23 76.52, -19.12 35.98, 9.53 5.06 M-83.75 116.88 C-45.32 70.73, -4.49 28.46, 12.24 6.42 M-82.17 117.67 C-60.96 92.58, -39.14 65.9, 14.22 7.2 M-77.81 119.11 C-49.37 82.82, -18.92 48.32, 18.02 7.01 M-78.41 120.23 C-55.81 92.9, -34.24 67.45, 17.78 6.7 M-75.36 120.64 C-53.01 95.08, -29.82 68.41, 20.63 10.17 M-75.27 122.04 C-49.44 92.33, -22.32 61.58, 21.45 9.04 M-71.81 122.4 C-41.25 88.06, -7.73 50.58, 24.29 11.78 M-71.69 121.75 C-40.9 88.17, -11.33 54.4, 25.07 10.31 M-69.07 124.17 C-42.28 95.7, -19.81 68.48, 31.31 11.67 M-67.5 124.65 C-42.65 95.77, -16.43 65.48, 29.26 12.29 M-61.98 124.44 C-39.48 97.58, -16.74 72.14, 33.78 12.27 M-63.24 126.93 C-36.15 92.88, -8.11 62.98, 33.65 13.49 M-59.32 127.8 C-33.12 94.5, -8.1 64.19, 35.71 13.71 M-60.64 127.5 C-38.72 101.94, -17.25 77.33, 37.67 14.71 M-56.85 127.78 C-24.86 97.17, 0.56 66.37, 41.52 16.23 M-55.08 129.34 C-23.57 90.76, 7.27 53.82, 41.5 17.87 M-50.35 130.28 C-32.22 107.08, -11.04 79.93, 46.14 19.27 M-52.09 131.31 C-19.36 93.87, 11.44 56.73, 44.8 19.55 M-50.01 133.39 C-28.77 109.28, -6.46 83.95, 50.77 20.11 M-49.15 132.41 C-19.77 97.39, 10.86 63.14, 48.99 20.09 M-45.47 134.81 C-24.55 108.1, -1.63 81.24, 54.45 20.52 M-44.18 133.64 C-8.39 93.44, 26.89 51.02, 53.43 22.62 M-38.85 134.69 C-8.25 100.54, 22.86 62.52, 56.34 21.81 M-40.03 135.29 C-6.71 97.25, 26.57 56.92, 56.2 22.62 M-37.79 139.03 C-3.08 94.5, 35.61 53.62, 60.08 23.3 M-36.9 136.79 C-9.15 107.18, 17.78 74.85, 61.09 24.75 M-33.85 139.54 C1.36 101.53, 32.1 63.58, 63.97 25.39 M-32.22 138.95 C-7.97 109.14, 16.91 79.87, 64.29 26.41 M-31.51 141.01 C2.02 105.88, 37.66 67.18, 68.69 28.17 M-29.11 141.86 C8.4 98.82, 45.22 55.28, 68.69 28.79 M-25.28 144.22 C7.79 104.72, 42.06 66.93, 72.9 30.11 M-24.87 142.12 C6.3 103.36, 39.34 67.66, 72.07 29.96 M-20.62 145.27 C9.16 110.47, 41.4 74.51, 75.5 31.11 M-21.38 144.72 C15.05 102.13, 50.35 59.4, 77.87 30.4 M-16.47 147.47 C13.78 104.98, 50.62 65.34, 76.04 39.45 M-17.03 145.32 C13.02 109.16, 45.26 71.91, 76.2 38.35 M-14.17 148.74 C18.34 110.18, 52.58 68.83, 76.78 45.33 M-15.14 148.05 C18.57 111.72, 51.16 74.03, 76.44 43.8 M-11.24 149.21 C7.94 128.39, 27.62 103.64, 78.47 49.04 M-11.08 149.59 C17.58 117.16, 43.8 86.07, 77.64 49.13 M-3.1 146.29 C15.72 124.21, 31.77 103.82, 76.05 55.13 M-1.56 146.73 C27.71 111.23, 57.1 78.35, 76.67 55.64 M4.7 142.97 C28.4 115.36, 51.86 90.13, 76.1 64.2 M5.86 142.96 C34.95 111.78, 62.1 78.49, 76.35 61.88 M15.97 140.24 C30.51 120.48, 48.56 99.49, 75.92 68.31 M14.66 139.5 C29.89 119.6, 48.12 99.86, 75.01 69.42 M20.83 134.85 C32.53 122, 42.97 112.9, 73.76 74.66 M23.02 135.36 C43.56 112.38, 63.58 90.6, 75.37 74.96 M29.39 131.63 C38.83 121.07, 49 108.9, 75.16 81.1 M29.95 132.14 C42.82 119.25, 55.68 105.78, 75.3 80.38 M37.36 127.85 C46.88 119.81, 54.18 110.87, 75.88 87.62 M39.53 128.91 C52.63 114.43, 63.96 99.43, 75.48 86.55 M47.66 125.65 C59.63 115.26, 70.58 101.95, 75.52 92.16 M47.05 126.94 C57.23 114.47, 66.05 102.92, 75.44 93.6 M56.08 124.38 C61.27 117.37, 64.63 110.04, 76.46 97.99 M55.24 122.55 C60.94 117.58, 65.01 110.95, 75.19 100.82 M64.72 120.68 C68.84 112.77, 71.1 110.24, 74.35 105.5 M64.34 119.83 C67.81 115.37, 70.92 112.52, 75.89 106.6 M72.22 115.37 C72.85 114.49, 73.58 113.72, 75.51 111.74 M72.31 115.8 C73.31 114.53, 74.29 113.46, 75.43 112.16" stroke="#be4bdb" stroke-width="0.5" fill="none"></path><path d="M1.47 1.3 C-24 9.08, -50.56 17.61, -90.01 29.12 M0.92 -0.48 C-20.9 6.09, -40.13 12.18, -89.13 27.06 M-89.73 28.64 C-91.44 54.78, -91.91 80.42, -91.87 115.5 M-90.14 27.28 C-89.61 61.28, -89.72 95.01, -90.59 114.73 M-89.28 115.72 C-61.1 127.28, -34.25 138.66, -11.82 149.48 M-89.81 113.85 C-67.74 123.61, -45.47 134.36, -11.21 148.49 M-12.38 147.46 C7.63 140.5, 30.61 132.72, 74.86 113.78 M-11.18 149.87 C11.63 139.65, 35.2 128.58, 74.56 112.73 M76.54 113.24 C74.18 89.12, 73.01 60.61, 75.18 30.67 M74.13 114.16 C75.9 95.56, 74.51 78.06, 76.33 31.03 M78.34 31 C62.52 25.51, 44.3 16.6, 1.45 0.66 M77.03 30.22 C51.86 21.95, 27.44 11.79, -0.71 -0.71 M0 0 C0 0, 0 0, 0 0 M0 0 C0 0, 0 0, 0 0" stroke="#881fa3" stroke-width="1" fill="none"></path></g></g><mask></mask><g stroke-linecap="round"><g stroke-opacity="0.6" fill-opacity="0.6" transform="translate(969.4775200134649 86.39124576522198) rotate(0 -7.076592330869005 74.87925586401471)" fill-rule="evenodd"><path d="M-89.92 27.84 C-89.92 27.84, -89.92 27.84, -89.92 27.84 M-89.92 27.84 C-89.92 27.84, -89.92 27.84, -89.92 27.84 M-89.09 33.47 C-87.17 31.67, -86.5 29.73, -81.39 24.79 M-89.48 33.57 C-86.86 31.18, -85.08 28.74, -82.81 25.7 M-88.3 41.1 C-87.29 34.89, -82.52 33.94, -76.77 23.67 M-89.13 39.81 C-85.51 34.03, -78.92 27.47, -74.91 23.08 M-90.88 47.79 C-80.42 37.7, -73.59 28.02, -66.28 21.94 M-90.61 46.71 C-85.18 39.1, -78.45 33.14, -67.98 21.37 M-89.17 52.08 C-85.23 46.37, -79.11 37.79, -61.02 19.76 M-89.81 51.97 C-84.7 46.24, -77.34 39.08, -60.14 18.8 M-89.21 57.86 C-77.44 43.35, -65.93 30.96, -54.29 16.82 M-90.14 58.04 C-76.69 43.8, -63.35 28.36, -53.58 15.84 M-91.42 65.74 C-78.76 50.74, -64.97 34.97, -45.17 14.67 M-90.95 64.07 C-74.58 46.8, -58.22 27.18, -46.78 14.68 M-89.03 72.9 C-77.15 56.5, -66.35 43.35, -38.84 11.3 M-91.36 70.18 C-73.69 51.17, -57.7 32.1, -40.23 12.33 M-88.42 75.75 C-74.5 62.51, -63.76 43.57, -32.4 8.3 M-90.1 76.54 C-73.65 58.33, -58.24 40.74, -31.74 10.14 M-89.47 84.53 C-74.81 68.01, -64.01 54.66, -26.47 9.22 M-91.25 82.44 C-77.1 66.98, -64.54 52.12, -25.4 8.67 M-91.99 91.21 C-66.13 65.39, -46.85 36.92, -18.32 5.96 M-90.11 88.58 C-73.85 70.69, -57.39 51.15, -16.22 4.42 M-92.71 96.84 C-68.11 71.92, -49.57 48.74, -9.52 1.14 M-91.68 96.91 C-59.65 60.2, -27.57 23.04, -9.17 2.73 M-90.38 102.42 C-67.78 75.86, -50.56 53.6, -3.67 3.18 M-91.12 101.93 C-71.53 78.5, -51.73 55.88, -2.37 1.27 M-90.74 108.31 C-68.07 80.8, -45.7 56.62, 2.6 0.04 M-90.21 108.48 C-61.08 73.12, -30.38 38.83, 2.47 2.16 M-92.95 114.1 C-51.28 68.74, -14.69 25.64, 6.49 5.44 M-91.2 114.1 C-60.25 78.7, -27.11 40.3, 5.48 2.75 M-86.03 116.64 C-49.2 73.6, -15.36 33.26, 11.37 4.85 M-86.69 115.52 C-52.7 74.6, -17.46 34.56, 9.55 3.91 M-80.98 118.36 C-55.94 83.36, -26.83 53.09, 11.8 5.08 M-83.18 117.34 C-54.07 84.61, -25.79 51.01, 13.87 6.15 M-77.42 117.45 C-52.83 91.17, -29.75 64.13, 17.07 7.91 M-79.19 118.73 C-52.47 90.42, -27.49 59.08, 18.07 7.64 M-76.54 119.86 C-55.47 96.99, -34.55 76.07, 19.56 8.44 M-75.56 121.79 C-42.35 83.62, -8.96 46.87, 21.13 9.06 M-70.15 122.1 C-33.92 82.65, -0.23 40.91, 24.96 10.25 M-72.03 122.85 C-34.83 78.75, 3.24 36.65, 24.17 11.11 M-65.67 122.65 C-49.83 100.01, -26.33 78.08, 27.95 12.01 M-67.61 124.3 C-33.67 82.05, 2.25 41.53, 28.67 11.61 M-64.59 125.85 C-36.48 92.05, -6.53 58.94, 31.83 14.1 M-64.5 126.89 C-41.62 101.23, -19.29 77.25, 32.67 14.56 M-59.45 129.21 C-29.62 88.59, 2.73 52.76, 38.74 13.74 M-60.51 127.53 C-26.34 87.43, 6.32 49.17, 37.58 15.7 M-54.92 130.38 C-25.68 93.02, 4.06 60.04, 42.05 15.38 M-55.56 128.62 C-29.62 99.51, -3.83 68.66, 41.12 17.31 M-52.79 130.45 C-16.4 89.42, 21.35 44.97, 44.58 17.78 M-52.11 129.89 C-17.98 90.88, 15.92 53.17, 44.06 19.78 M-50.39 133.85 C-19.3 99.21, 6.86 67.4, 50.22 20.69 M-49.05 132.63 C-25.79 106.6, -4.95 81.48, 48.48 20.68 M-45.64 135.73 C-10.62 96.07, 19.57 55.48, 51.66 23.44 M-44.14 133.59 C-15.33 100.42, 15.31 64.55, 51.97 21.82 M-42.06 136.82 C-15.46 109.92, 5.04 80.78, 56.51 24.08 M-40.49 136.24 C-10.24 100.56, 20.13 66.5, 56.41 22.79 M-37.8 138.84 C-4.88 98.21, 28.44 57.73, 59.77 25.74 M-37.01 136.61 C-11.98 112.04, 10.96 84.42, 60.92 25.82 M-32.05 140.31 C-10.55 114.48, 9.1 87.21, 65.98 27.77 M-32.3 139.59 C2.75 99.43, 38.38 58.27, 64.63 27.28 M-30.08 140.01 C0.31 103.53, 36.04 65.44, 68.92 28.37 M-29.03 140.74 C-5.86 114.82, 16.67 87.94, 68.9 28.8 M-24.29 143.76 C11.37 98.97, 46.71 60.6, 71.23 31.19 M-24.53 141.59 C11.95 98.29, 50.01 53.56, 73.55 30.32 M-23.16 143.9 C14.86 101.19, 50.76 57.44, 78.67 32.47 M-21.16 143.5 C3.4 115.15, 26.97 87.07, 77.62 31.6 M-17.77 147.06 C9.54 118.68, 34.3 86.51, 76.52 35.96 M-18.18 145.93 C18.75 105.09, 53.49 64.92, 76.39 37.64 M-14.73 149.62 C16.8 110.14, 50.62 76.64, 75.63 42.42 M-14.26 148.25 C16.95 110.42, 49.48 73.68, 75.98 44.61 M-9.96 149.28 C7.16 125.58, 29.22 104.17, 76.25 49.87 M-10.54 149.83 C13.78 121.83, 39.34 92.17, 77.71 50.49 M-2.4 148.19 C22.98 119.54, 44.36 92.83, 75.66 55.67 M-1.93 145.55 C20.21 120.57, 41.21 96.92, 76.3 55.65 M5.77 141.12 C30.3 114.23, 55.22 82.6, 77.69 60.39 M5.35 142.47 C23.48 121.54, 43.72 100.05, 76.02 63.11 M12.57 140.07 C26.42 123.83, 42.94 107.75, 75.72 67.18 M13.71 138.79 C38.49 111.23, 62.6 83.61, 76.15 68.38 M21.24 135.84 C39.41 119.22, 56.54 98.19, 75.02 73.42 M21.8 135.95 C33.88 122.63, 45.69 109.8, 75.96 75.53 M29.87 134.47 C43.31 116.35, 55.73 101.34, 74.94 82.32 M30.67 133.44 C41.2 122.27, 50.47 110.25, 75.42 81.24 M41.02 129.58 C51.47 113.16, 63.63 100.47, 75.99 86.32 M40.01 129.6 C48.72 117.85, 57.38 108.29, 74.87 86.6 M47.34 126.75 C56.37 116.29, 62.1 107.91, 77.38 94.93 M48.27 126.45 C54.74 115.68, 64.33 106.37, 75.09 93.45 M57.23 123.9 C60.24 118.01, 67.09 113.57, 75.97 98.14 M54.91 122.5 C59.67 117.01, 64.54 111.56, 74.87 100.18 M64.33 119.61 C67.27 115.23, 71.62 111.51, 76.39 106.06 M64.45 119.5 C67.23 115.95, 70.64 111.92, 75.73 105.85 M72.52 115.26 C72.54 114.47, 73.64 113.58, 75.21 112.06 M72.41 115.69 C73.22 114.66, 73.57 113.9, 75.44 111.95" stroke="#be4bdb" stroke-width="0.5" fill="none"></path><path d="M-0.6 -0.67 C-36.11 10.49, -72.32 21.8, -88.46 28.54 M0.8 0.99 C-24.38 8.72, -49.2 15.26, -89.4 27.42 M-90.22 28.31 C-90.4 53.15, -88.96 78.28, -91.55 112.83 M-90.41 26.8 C-90.21 55.27, -90.28 81.84, -90.72 113.83 M-88.79 113.16 C-60.52 126.54, -34.57 139.38, -12.91 149.09 M-90.99 114 C-58.85 126.16, -28.59 140.29, -10.9 148.01 M-10.05 150.51 C13.25 137.09, 38.47 128.4, 75.55 111.86 M-10.73 149.84 C14.88 137.43, 38.99 127.96, 74.97 113.89 M73.93 112.57 C75.06 93.65, 74.57 75, 75.06 30.39 M75.58 113.19 C73.62 96.75, 75.14 78.49, 77.4 30.05 M75.23 31.22 C47.94 21.25, 23.5 11.14, -0.94 -0.76 M77.29 31.05 C58.28 22.97, 39.08 17, 0.07 0.83 M0 0 C0 0, 0 0, 0 0 M0 0 C0 0, 0 0, 0 0" stroke="#881fa3" stroke-width="1" fill="none"></path></g></g><mask></mask><g stroke-linecap="round"><g stroke-opacity="0.6" fill-opacity="0.6" transform="translate(1136.5766068455318 10.69955782406032) rotate(0 -8.162703369792297 74.18340193591067)" fill-rule="evenodd"><path d="M-89.92 27.84 C-89.92 27.84, -89.92 27.84, -89.92 27.84 M-89.92 27.84 C-89.92 27.84, -89.92 27.84, -89.92 27.84 M-90.24 32.87 C-87.01 30.53, -84.85 28.62, -81.53 26.16 M-89.53 33.6 C-87.02 30.5, -83.81 27.68, -82.82 24.67 M-88.83 37.94 C-85.28 33.88, -79.31 29.68, -73.73 22.27 M-90.09 39.5 C-84.86 33.09, -78.79 26.87, -75.41 23.06 M-89.31 46.1 C-81.3 35.61, -75.62 27.99, -66.91 22 M-89.14 45.39 C-80.45 35.23, -72.59 26.17, -68.68 19.9 M-91 51.27 C-79.92 43.7, -74.58 32.68, -62.21 20.37 M-91.1 52.05 C-78.73 39.17, -67.64 26.49, -60.33 17.74 M-90.86 60.04 C-79.13 43.4, -67.96 32.04, -55.71 17.7 M-90.47 58.62 C-76.36 42.62, -59.98 24.12, -54.69 17.77 M-89.1 66.64 C-78.77 49.3, -64.97 35.21, -46.17 14.97 M-90.22 64.47 C-71.29 44.34, -54.33 25.11, -46.91 14.48 M-91.62 72.73 C-75.49 53.36, -59.43 36.8, -39.31 12.57 M-89.68 71.51 C-74.71 52.82, -57.49 33.58, -38.78 12.74 M-90.34 78.07 C-72.55 60.09, -57.79 41, -33.65 9.3 M-90.33 77.26 C-66.49 51.59, -44.95 25.41, -31.9 9.3 M-91.56 83.15 C-78.83 69.03, -64.46 53.57, -24.1 8.82 M-89.58 83.93 C-67.05 57.41, -43.4 30.8, -24.76 7.7 M-90.37 89.01 C-72.5 67.04, -52.68 46.8, -15.11 6.01 M-90.61 88.7 C-72.2 68.13, -53.58 47.11, -17.32 4.99 M-91.7 96.71 C-69.29 69.6, -47.83 45.67, -8.27 1.33 M-90.87 95.57 C-58.71 58.63, -27.39 22.14, -10.04 2.61 M-91.32 102.09 C-61.1 65.65, -31.83 32.19, -4.12 -0.03 M-90.53 100.62 C-63.14 70.51, -36.53 38.52, -3.14 1.9 M-88.88 107.26 C-68.05 82.82, -44.9 55.21, 2.93 1.45 M-90.94 107.88 C-55.02 66.41, -17.6 24.38, 1.05 2.2 M-90.36 112.39 C-64.25 80.58, -35.39 52.76, 7.41 2 M-90.49 113.61 C-69.28 89.13, -46.61 63.98, 5.47 3.65 M-88.42 113.83 C-63.28 88.07, -37.81 59.81, 9.15 4.44 M-86.46 114.83 C-67.02 93.03, -48.21 70.98, 9.23 5.48 M-82.62 116.35 C-52.41 83.35, -21.74 50.56, 14.29 7.81 M-82.63 117.99 C-58.43 89.85, -32.09 61.79, 13.22 6.12 M-77.99 119.39 C-42.76 79.21, -7.58 38.47, 18.82 8.98 M-79.33 119.67 C-47.62 82.23, -14.18 45.19, 18.17 7.22 M-74.02 120.99 C-44.71 87.25, -12.81 48.02, 20.95 9.05 M-75.8 120.97 C-54.08 95.89, -30.9 68.88, 21.62 8.48 M-69.68 120.64 C-42.54 92.21, -16.23 63.36, 23.34 12.45 M-70.71 122.74 C-35.55 81.06, -1 41.81, 24.68 11.22 M-68.45 122.68 C-35.21 89.67, -4.28 54.05, 28.75 13.57 M-68.58 123.49 C-31.44 84.03, 3.56 42.43, 30.25 11.43 M-64.71 124.18 C-44.52 102.02, -21.83 79.53, 31.67 15.42 M-63.7 125.62 C-25.8 82.22, 12.68 37.25, 33.24 14.83 M-60.82 126.26 C-26.73 89.62, 9.18 52.15, 36.59 16.68 M-60.5 127.28 C-36.61 100.81, -13.68 73.09, 37.38 14.45 M-56.1 129.05 C-17.43 83.91, 20.72 42.89, 42.34 18.15 M-56.1 129.67 C-20.16 88.76, 15 46.69, 42.1 17.43 M-51.89 130.98 C-22.14 96.3, 9.36 61.66, 44.31 17.85 M-52.72 130.84 C-29.9 103.78, -8.04 79.5, 45.36 18.58 M-49.95 132.73 C-9.32 89.85, 27.19 45.13, 50.11 21.6 M-47.58 132.03 C-16.45 98.67, 13.81 63.19, 49.86 19.43 M-45.46 136.55 C-23.03 112.04, -2.22 87.22, 51.23 21.74 M-45.31 135.45 C-18.44 105.16, 7.37 75.82, 53.23 21.34 M-40.14 137.15 C-3.21 94.77, 30.96 52.08, 57.28 24.15 M-40.47 135.62 C-9.61 99.16, 23.61 60.25, 56.86 23.01 M-35.16 137.09 C-2.99 100.95, 31.07 60.41, 60.32 26.71 M-36 137.17 C-9.59 106.24, 18.99 74.02, 60.79 25.33 M-33.65 138.65 C-6.38 110.08, 17.72 84.72, 65.09 26.37 M-33.03 139.16 C-10.68 113.86, 11.02 88.22, 64.51 26.91 M-29.67 143.18 C-7.83 118.59, 9.48 94.97, 68.71 29.8 M-29.42 140.86 C6.33 100.01, 41.48 59.8, 69.18 27.16 M-25.26 142.02 C8.42 105.25, 41.78 66.55, 72.29 28.02 M-26.16 143.12 C-3.02 115.84, 21.83 88.34, 71.87 29.36 M-23.47 143.83 C3.38 115.91, 22.57 92.73, 75.16 31.49 M-21.87 144.14 C-1.93 121.24, 19.42 96.19, 76.29 30.22 M-18.79 146.5 C11.21 113.26, 39.84 78.37, 75.3 37.08 M-18.65 145.79 C11.86 108.79, 44.18 72.96, 75.85 37.19 M-14.13 148.5 C13.29 118.04, 38.18 89.18, 75.39 45.52 M-14.54 147.42 C10.48 121.07, 33.54 95.21, 76.2 44.49 M-10.57 148.51 C23.56 111.46, 57.97 71.13, 78.67 49.68 M-10.64 149.95 C17.19 118.3, 45.04 87.78, 77.66 49.7 M-1.09 144.53 C23.88 115.7, 50.71 84.81, 76.47 56.66 M-2.36 147.36 C26.7 114.74, 53.69 83.23, 77.39 56.37 M5.2 142.07 C20.66 125.19, 33.13 111.01, 77.82 63.63 M7.01 143.37 C24.66 118.96, 44.82 96.69, 75.5 62.23 M14.54 138.74 C27.47 125.43, 39.74 112.12, 76.47 69.22 M14.24 140.42 C33.15 117.06, 52.17 94.66, 76.61 69.09 M21.49 137.81 C39.35 113.75, 59.83 93.96, 77.1 73.18 M21.77 135.73 C35.17 121.95, 46.19 107.97, 76.68 74.88 M30.61 132.68 C48.66 111.67, 68.04 93.86, 77.69 79.93 M29.92 132.14 C44.14 115.98, 58.5 100.89, 75.91 81.68 M38.03 131.2 C52.7 113.21, 62.95 98.55, 76.42 86.02 M39.03 128.92 C52.73 112.4, 68.58 96.91, 76.22 87.58 M49.12 124.05 C55.54 119.08, 60.48 108.57, 77.34 91.95 M47.68 126.56 C57.61 114.91, 65.73 104.02, 75.45 92.94 M56.09 121.15 C62.44 112.32, 70.35 107.66, 77.29 101.55 M54.87 121.62 C61.23 116.27, 68.33 109.39, 74.89 100.26 M63.68 119.86 C67.37 116.66, 70.33 113.48, 76.03 105.73 M64.18 119.44 C67.53 115.47, 70.48 110.7, 74.24 106.21 M71.76 115.31 C73.36 114.17, 74.37 113.35, 75.44 112.37 M72.16 115.62 C73.35 114.22, 74.59 112.77, 75.54 111.88" stroke="#be4bdb" stroke-width="0.5" fill="none"></path><path d="M0.82 0.14 C-28.28 9.78, -57.89 18.73, -88.58 28.29 M0.4 0.59 C-33.91 9.54, -68.48 20.09, -90.27 27.25 M-88.14 28.56 C-89.15 52.36, -87.69 82.11, -92.67 115.09 M-89.02 27.7 C-89.64 58.26, -90.24 90.18, -91.44 114.47 M-92.66 113.05 C-72.27 120.88, -55.18 130.4, -10.16 148.88 M-90.66 114.95 C-62.52 126.91, -33.5 139.08, -10.87 149.07 M-9.53 147.08 C23.44 133.79, 55.74 122.34, 76.14 114.93 M-10.34 148.18 C13.16 139.21, 37.21 128.22, 75.3 113.64 M73.27 114.6 C74.7 96.25, 76.68 75.18, 75.65 32.09 M74.59 114.44 C75.85 80.59, 74.97 48.38, 75.92 31.02 M75.03 30.1 C61.36 22.49, 43.14 17.98, 1.14 -0.59 M76.35 30.46 C58.5 21.78, 40.12 15.95, 0.5 -0.7 M0 0 C0 0, 0 0, 0 0 M0 0 C0 0, 0 0, 0 0" stroke="#881fa3" stroke-width="1" fill="none"></path></g></g><mask></mask><g stroke-linecap="round"><g stroke-opacity="0.6" fill-opacity="0.6" transform="translate(1134.6394664550837 321.56159666785544) rotate(0 -7.601067783359184 73.98683653323897)" fill-rule="evenodd"><path d="M-89.92 27.84 C-89.92 27.84, -89.92 27.84, -89.92 27.84 M-89.92 27.84 C-89.92 27.84, -89.92 27.84, -89.92 27.84 M-90.14 33 C-86.94 30.69, -85.82 27.73, -81.94 26.2 M-89.2 33.45 C-88.29 31.84, -86.73 29.85, -82.46 25.22 M-91.08 38.99 C-85.76 35.81, -84.62 30.9, -76.2 22.33 M-89.09 39.77 C-87.33 35.58, -82.54 31.41, -76.09 23.31 M-90.22 48.09 C-82.43 36.19, -72.22 26.83, -67.56 21.74 M-89.79 46.03 C-83.84 38.12, -76.36 31.34, -66.77 19.85 M-88.41 53.27 C-81.53 40.03, -70.68 29.6, -59.43 20.64 M-89.37 53.14 C-84.1 44.77, -75.95 37.98, -60.32 18.69 M-89.74 56.52 C-79.79 43.77, -66.47 32.1, -54.62 16.14 M-90.64 58.48 C-79.57 46.1, -69.07 33.24, -54.3 16.22 M-88.31 65.05 C-73.96 45.68, -55.02 27.13, -44.56 14.94 M-90.71 65.03 C-73.12 45.45, -57.02 28.33, -45.27 13.88 M-91.93 72.39 C-76.87 56.02, -63.07 39.77, -38.97 13.24 M-90.22 71.05 C-71.14 48.66, -52.78 28.44, -39.99 12.6 M-91.66 78.33 C-74.7 58.46, -57.25 40.78, -32.83 9.04 M-90.52 76.56 C-73.29 56.85, -56.17 38.32, -31.94 9.71 M-91.47 84.74 C-78.11 69.42, -63.1 53.66, -23.29 5.85 M-90.82 83.71 C-66.79 56.3, -44.58 28.27, -23.85 7.19 M-91.88 88.7 C-70.53 65.77, -46.69 40.65, -16.03 4.27 M-91.44 88.56 C-65.37 59.76, -38.28 28.76, -17.54 5.77 M-92.23 95.15 C-75.37 76.14, -58.26 59.48, -10.16 1.61 M-91.61 96.16 C-63.22 62.4, -33.94 28.93, -10.45 3.18 M-88.99 101.01 C-61.28 65.62, -27.6 32.26, -1.2 0.3 M-91.36 101.33 C-58.57 64.94, -26.78 27.48, -4.17 1.08 M-90.01 107.8 C-72.34 86.88, -54.68 65.33, 2.65 2.73 M-91.33 107.8 C-58.8 71.11, -26.96 33.53, 1.77 2.49 M-90.2 114.73 C-60.2 79.06, -29.07 45.05, 6.15 2.89 M-90.02 113.9 C-67.33 88.38, -45.25 61.9, 5.94 3.94 M-85.2 114.12 C-63.82 89.58, -38.71 60.92, 10.11 5.47 M-86.99 116.49 C-51.91 75.96, -14.82 34.7, 10.51 5.23 M-84.78 116.79 C-58.9 93.26, -38.19 68.02, 15.13 4.8 M-83.86 116.95 C-54.5 86.67, -28.7 55.32, 13.49 6.8 M-80.71 119.66 C-56.79 95.7, -36.93 69.05, 15.9 7.63 M-79.73 119.32 C-46.09 78.83, -11.61 40.54, 17.45 7.21 M-76.94 122.83 C-49.36 90.43, -20.68 59.96, 20.34 8.86 M-74.93 122 C-38.73 78.59, -0.79 37.48, 21.06 9.33 M-71.95 121.78 C-40.19 88.43, -9.6 52.02, 26.53 11.83 M-70.89 122.4 C-44.57 92.86, -18.32 62.73, 24.51 11.24 M-68.95 123.96 C-35.96 92.61, -9.22 56.66, 29.16 12.24 M-67.98 124.21 C-31.22 80.85, 6.4 36.91, 30.34 12.7 M-63.6 125.91 C-44.47 102.93, -22.61 79.76, 33.91 14.01 M-64.73 125.01 C-42.73 101.96, -24.02 80.58, 32.31 13.58 M-58.27 125.89 C-36.17 103, -13.7 72.58, 38.42 13.65 M-59.64 127.49 C-27.85 90.91, 4.68 55.75, 36.79 14.79 M-56.29 128.01 C-34.62 105.02, -13.99 80.77, 39.42 15.93 M-55.08 128.15 C-29.28 96.23, -2.44 66.06, 40.31 16.48 M-52.28 130.86 C-25.03 101.73, 0.9 70.12, 45.72 18.16 M-53.09 130.45 C-15.13 89.28, 21.82 46.19, 45.01 18.96 M-47.8 132.62 C-15.36 92.07, 22.35 51.79, 48.55 22.15 M-48.63 132.55 C-18.38 98.46, 11.33 64.43, 49.41 21.14 M-45.58 135.7 C-15.88 98.07, 16.94 62.26, 52.07 22.08 M-45.38 134.43 C-11.52 97.61, 20.6 58.69, 53.35 23 M-39.88 134.84 C-6.49 97.09, 27.21 56.24, 58.22 24.81 M-39.66 136.65 C-4.19 93.05, 30.8 52.04, 57.29 22.49 M-38.69 137.78 C-8.01 105.01, 21.41 71.59, 61.95 25.59 M-36.16 137.48 C-4.24 100.71, 26.59 64.03, 59.96 25.73 M-31.46 138.34 C1.25 99.85, 31.63 64.06, 64.12 28.35 M-33.28 138.61 C-12.86 117.36, 7.05 93.44, 63.73 27.93 M-31.31 141.05 C-3.12 110.22, 23.2 80.37, 69.94 29.66 M-28.9 140.36 C-4.73 110.72, 21.07 81.67, 69.45 27.88 M-25.39 141.32 C14.67 98.59, 50.15 51.48, 71.36 30.53 M-24.23 142.32 C-2.77 114.64, 21.41 88.7, 73.3 30.32 M-21.09 146.01 C11.02 106.46, 48.32 65.16, 76.05 32.82 M-21.67 144.57 C0.49 120.29, 21.19 94.12, 76.19 30.93 M-17.74 146.59 C2.77 119.51, 25.2 93.85, 78.57 39.43 M-18.05 145.37 C17.12 103.88, 54.75 63.47, 77.41 37.02 M-12.86 147.74 C17.42 113.79, 47.64 79.31, 77.19 45 M-14.4 148.32 C10.08 120.09, 34.13 91.81, 75.81 42.89 M-9.14 148.24 C12.81 121.91, 37.98 93.14, 76.42 49.44 M-10.56 149.83 C21.3 110.99, 54.89 72.55, 76.86 49.84 M-1.46 145.32 C19.76 121.33, 41.31 97.28, 77.43 57.27 M-1.67 146.01 C14.56 126.34, 31.21 107.11, 77.43 56.1 M5.72 144.11 C20.72 126.93, 39.04 106.89, 74.3 62.72 M6.75 142.68 C24.69 120.66, 44.37 97.13, 76.52 62.52 M12.47 139.44 C35.25 114.12, 55.05 91.85, 75.8 70.38 M13.48 139.77 C31.76 118.46, 49.08 99.03, 75.47 67.71 M23.23 134.74 C44.47 111.58, 64.58 88.22, 74.4 76.04 M21.78 136.73 C42.51 112.8, 64.13 88.36, 75.4 75.55 M31.13 131.66 C48.29 115.91, 61.57 95.26, 75.35 79.6 M30.2 132.75 C40.29 121.06, 51.96 109.43, 76.73 80.55 M38.4 127.68 C50.91 116.55, 57.4 105.31, 74.36 85.7 M39.41 128.95 C48.85 116.61, 59.99 104.31, 75.31 87.12 M48.74 125.78 C52.16 117.22, 61.97 112.4, 73.98 92.79 M47 126.54 C57.8 112.55, 69.84 100.86, 75.2 93.2 M55.69 124.01 C64.2 112.98, 69.63 107.98, 77.29 101.83 M56.3 123.04 C59.88 116.57, 65.56 110.5, 74.85 99.44 M63.12 117.47 C68.78 116.39, 71.99 109.33, 76.69 105.29 M63.3 118.55 C66.41 115.49, 70.05 111.8, 74.66 106.63 M72.37 115.4 C72.95 114.51, 74.11 113.4, 75.67 111.76 M72.35 115.66 C73.42 114.17, 74.62 112.97, 75.6 111.82" stroke="#be4bdb" stroke-width="0.5" fill="none"></path><path d="M0.02 0.74 C-25.05 8.61, -51.82 14.4, -90.54 28.41 M-0.3 0.91 C-33.74 10.9, -66.94 20.13, -89.59 26.64 M-91.68 26.89 C-91.55 49.34, -90.28 66.33, -92.3 112.69 M-90.45 26.79 C-90.01 61.22, -90.53 94.19, -91.19 114.57 M-90.44 113.17 C-72.69 120.02, -59.29 126.3, -9.64 147.01 M-90.4 113.56 C-62.6 125.39, -34.41 139.36, -11.9 148.04 M-11.61 149.97 C25 133.64, 55.85 120.98, 73.75 113.76 M-11.87 148.85 C17.69 138.71, 46.4 126.25, 74.68 113.02 M74.75 112.53 C77.01 86.08, 75.01 59.86, 75.66 30.53 M74.42 114.47 C75.48 86.65, 75.92 61.35, 76.16 31.06 M77.1 30.28 C51.16 20.68, 25.02 8.78, 1.19 -2 M76.53 30.29 C54.9 22.36, 32.88 13.03, -0.4 -0.25 M0 0 C0 0, 0 0, 0 0 M0 0 C0 0, 0 0, 0 0" stroke="#881fa3" stroke-width="1" fill="none"></path></g></g><mask></mask><g stroke-linecap="round"><g stroke-opacity="0.6" fill-opacity="0.6" transform="translate(1303.2762055815138 232.53605133096434) rotate(0 -6.489036177333219 74.73318462929674)" fill-rule="evenodd"><path d="M-89.92 27.84 C-89.92 27.84, -89.92 27.84, -89.92 27.84 M-89.92 27.84 C-89.92 27.84, -89.92 27.84, -89.92 27.84 M-89.28 33.42 C-86.39 29.41, -84.44 28.16, -83.1 25.56 M-89.97 33.91 C-87.65 31.24, -85.21 29.1, -82.63 25.03 M-90.74 39.48 C-85.89 33.78, -80.49 29.9, -75.93 23.53 M-90.37 40.67 C-87.55 37.23, -83.84 33.73, -74.65 22.36 M-91.08 47.4 C-81.19 37.52, -75.79 26.35, -66.04 19.63 M-90.7 45.85 C-84.24 39.23, -76.57 31.55, -67.22 20.24 M-92.06 50.69 C-81.15 41.77, -69.12 28.24, -61.7 20.2 M-91.01 52.28 C-84.89 45.35, -78.54 39.55, -60.8 17.96 M-91.48 58.75 C-78.1 43.98, -64.36 28.6, -54.47 16.93 M-89.19 58.03 C-77.99 43.37, -63.85 29.78, -52.84 16.35 M-92.04 64.19 C-74.95 46.74, -59.01 26.63, -48.2 13.88 M-89.83 64.62 C-81.45 54.72, -73.1 44.49, -45.8 14.73 M-91.72 70.74 C-71.75 51.3, -54.29 29.29, -39.34 14.07 M-90.06 71.28 C-74.12 52.35, -57.62 34.26, -38.93 11.97 M-88.17 75.79 C-75.71 61.21, -63.34 44.84, -30.75 10.59 M-89.33 76.06 C-76.24 60.91, -61.19 43.7, -31.51 10.04 M-91.03 85.12 C-67.56 57.08, -40.26 28.48, -23.32 9.02 M-91.22 82.86 C-74.3 66.62, -60.13 49.6, -23.88 6.86 M-92.38 88.71 C-67.78 67.03, -49.81 43.03, -17.08 5.76 M-91.28 89.76 C-73.93 71.46, -58.41 51.71, -18.05 5.06 M-91.73 96.12 C-63.3 61.49, -33.66 30.14, -10.87 2.45 M-91.5 96.81 C-68.87 70.33, -45.54 44.75, -10.71 2.84 M-89.08 103.36 C-57.7 62.6, -22.57 27.24, -4.05 1.05 M-90.77 101.37 C-62 70.4, -34.04 37.62, -2.5 1.49 M-89.94 108.34 C-65.34 80.02, -40.01 51.01, 0.48 1.49 M-91.37 107.92 C-61.42 77.1, -35.06 44.18, 1.64 1.49 M-91.73 114.62 C-55.25 71.33, -17.76 26.88, 7.15 4.05 M-90.8 114.36 C-71.45 91.75, -50.52 68.67, 5.85 3.31 M-88.24 113.59 C-64.84 90.7, -47.36 70.88, 8.07 3.19 M-85.64 114.53 C-62.67 90.21, -39.91 61.74, 10.27 3.69 M-81.74 116.69 C-51.12 80.18, -17.94 46.53, 12.04 5.25 M-83.14 116.9 C-61.99 93.91, -41.32 69.89, 12.61 5.77 M-77.61 117.64 C-52.99 85.69, -26.6 56.76, 16.08 6 M-79.3 119.26 C-52.31 89.71, -26.07 58.63, 18.25 7.06 M-77.3 120.38 C-39.08 80.37, -2.39 37, 21.79 9.09 M-75.22 121.08 C-41.95 80.27, -5.56 39.95, 21.18 10.37 M-71.4 121.95 C-41.41 88.05, -12.63 55.23, 25.62 13.09 M-71.62 122.8 C-41.71 86.74, -10.04 51.28, 24.77 11.27 M-68.58 123.85 C-33.54 88.11, -2.61 48.56, 30.46 14.2 M-67.26 123.68 C-33.28 85.84, 0.32 46.16, 30.02 13.19 M-62.11 127.92 C-27.47 82.73, 6.41 42.24, 33.36 12.81 M-64.82 126.08 C-34.8 93.4, -5.93 60.4, 33.72 14.51 M-58.8 127.7 C-26.81 90.85, 2.91 54.23, 35.69 16.66 M-59.37 127.3 C-26.59 88.83, 5.25 51.78, 37.3 16.08 M-56.06 127.35 C-36.19 107.23, -16.5 82.55, 39.56 19.2 M-56.8 128.83 C-29.79 98.37, -3.23 68.03, 41.72 18.04 M-50.96 128.98 C-28.43 100.48, -2.75 72.19, 46 18.73 M-52.33 130.28 C-13.52 86.95, 23.28 41.47, 44.26 19.41 M-46.61 132.54 C-26.6 103.97, -2.15 79.59, 50.68 20.99 M-48.35 133.56 C-15.28 94.71, 20.12 54.78, 48.77 21.12 M-45.18 135.17 C-22.43 111.69, -2.91 84.55, 51.48 21.85 M-44.83 134.78 C-22.8 107.31, 0.62 80.44, 53.84 23.09 M-40.95 134.15 C-5.28 91.57, 35.21 50.74, 58.77 22.35 M-39.9 135.54 C-6.93 98.19, 25.69 60.82, 57.61 23.79 M-37.34 138.18 C-10.37 107.65, 15.59 76.53, 59.76 23.16 M-36.2 136.72 C-9.7 105.74, 18.43 73.48, 60.7 25.06 M-33.31 139.33 C2.02 95.44, 39.96 52.18, 64.76 27.64 M-32.82 138.84 C-6.44 108.94, 19.95 78.96, 65.02 27.65 M-28.41 140.38 C-8.38 115.77, 11.9 92.28, 70.75 28.49 M-29.69 141.81 C-7.75 116.94, 15.24 91.01, 67.91 28.29 M-23.77 141.66 C0.3 111.32, 27.66 78.07, 73.13 30.4 M-26.12 142.3 C8.25 102.32, 41.35 64.5, 72.46 30.79 M-23.16 144.53 C6.17 110.16, 33.69 79.47, 75.88 29.1 M-21.2 143.53 C17.63 98.93, 56.4 54.22, 76.23 31.53 M-19.43 147.15 C17.41 104.63, 56.01 61.08, 76.01 38.37 M-17.71 145.56 C16.34 109.32, 48.11 70.09, 76.24 36.89 M-15.44 147.89 C4.73 124.5, 28.07 101.25, 77.62 43.49 M-14.53 147.15 C11.01 118.97, 33.98 90.65, 75.62 43.14 M-9.88 148.99 C13.01 119.66, 39.39 90.35, 75.7 49.49 M-9.82 149.77 C8.12 126.38, 30.1 104.32, 75.95 49.13 M-2.96 147.59 C27.56 109.52, 60.48 75.96, 75.73 55.24 M-2.21 147.18 C26.18 113.16, 53.69 82.14, 77.48 56.85 M7.37 144 C21.86 121.98, 40.85 101.08, 75.3 61.33 M5.57 142.06 C29.66 116.9, 52.68 88.44, 77.19 61.68 M12.87 138.22 C30.84 118.59, 50.1 97.61, 75.03 69.43 M14.7 138.97 C30.64 121.02, 47.19 102.43, 76.42 68.27 M24.02 135.58 C42.82 112.19, 62.29 91.15, 76.9 73.92 M21.82 136.46 C42.09 114.73, 60.98 92.97, 75.65 74.54 M31.63 131.12 C40.44 122.64, 52.19 109.1, 74.52 81.55 M31.27 131.89 C40.92 119.49, 51.9 107.26, 75.39 79.78 M40.51 129.98 C49.84 118.35, 59.34 107.9, 76.13 86.76 M39.21 130.23 C47.44 121.39, 54.75 112.97, 75.74 86.46 M47.05 127.75 C52.96 119.95, 59.31 110.24, 74.14 91.57 M47.88 126.85 C55.68 117.53, 62.76 107.5, 76.46 92.53 M56.86 122.89 C63.84 113.56, 72.25 103.52, 76.19 101 M55.72 122.39 C63.09 115.12, 68.24 106.38, 74.62 99.25 M62.62 120.77 C68.65 113.12, 73.68 111.08, 75.32 106.58 M63.67 119.46 C68.99 113.98, 71.73 109.72, 75.32 107.09 M72.28 115.67 C73.44 114.75, 74.19 113.85, 75.72 111.53 M72.39 115.75 C72.81 115.14, 73.41 114.28, 75.29 112.09" stroke="#be4bdb" stroke-width="0.5" fill="none"></path><path d="M-1.13 1.46 C-30.32 10.28, -62.66 20.96, -88.23 27.45 M-0.04 0.1 C-27.47 7.66, -54.45 16.23, -88.83 28.57 M-89.11 27.49 C-92.18 56.46, -90.93 87.11, -90.51 113.65 M-90.26 27.14 C-89.83 53.02, -91.08 78.29, -90.42 115.04 M-89.58 114.02 C-74.36 121.97, -57.42 128.42, -11.48 149.07 M-91.4 113.67 C-70.46 122.16, -51.8 130.44, -11.37 148.42 M-9.54 148.69 C7.45 140.37, 30.52 131.57, 73.17 113.79 M-11.03 149.8 C20.38 135.83, 52.9 122.92, 74.74 114.27 M75.17 113.22 C74.18 88.24, 76.58 65.35, 78.42 29.06 M75.6 114.01 C74.48 83.39, 75.22 54.19, 77.16 31.54 M78.36 31.52 C57.72 23.11, 43.1 18.04, 0.93 -0.03 M76.57 29.68 C51.26 19.22, 27.58 10.23, -0.39 -0.33 M0 0 C0 0, 0 0, 0 0 M0 0 C0 0, 0 0, 0 0" stroke="#881fa3" stroke-width="1" fill="none"></path></g></g><mask></mask><g stroke-linecap="round"><g stroke-opacity="0.6" fill-opacity="0.6" transform="translate(1312.5699569489157 88.4188362906325) rotate(0 -7.343155140105409 73.85088631342151)" fill-rule="evenodd"><path d="M-89.92 27.84 C-89.92 27.84, -89.92 27.84, -89.92 27.84 M-89.92 27.84 C-89.92 27.84, -89.92 27.84, -89.92 27.84 M-88.44 33.94 C-86.75 31.49, -84.4 29.12, -83.01 24.97 M-89.77 33.46 C-86.37 30.45, -84.13 27.62, -82.1 25.27 M-87.83 40.54 C-85.94 33.44, -82.38 29.45, -73.48 22.31 M-89.89 40.33 C-84.95 34.42, -80.21 30.03, -74.64 22.58 M-89.96 46.57 C-82.57 39.72, -76.47 29.13, -68.47 22.59 M-89.82 46.97 C-84.32 39.26, -80.55 34.56, -68.66 20.33 M-90.43 54.31 C-80.27 38.5, -67.53 25.61, -62.61 17.87 M-89.7 52.67 C-78.68 38.82, -66.89 25.94, -61.5 18.92 M-90.46 56.4 C-76.57 43.8, -62.45 29.35, -54.74 16.98 M-90.26 57.95 C-79.29 45.58, -67.91 33.36, -54.5 17.67 M-89.04 63.55 C-78.63 52.07, -66.33 34.87, -44.87 15.92 M-89.45 64.28 C-78.32 51.39, -67.15 37.1, -46.56 13.93 M-89.33 72.47 C-76.93 55.48, -65.62 39.69, -38.51 12.59 M-90.35 70.44 C-76.52 54.93, -63.35 39.27, -39.94 12.18 M-91.01 76.41 C-67.8 51.95, -43.25 23.62, -32.43 9.81 M-90.94 77.59 C-74.57 58.65, -59.38 41.39, -31.5 9.56 M-90.65 83.88 C-71.92 59.6, -54.41 40.87, -26.32 5.77 M-89.86 82.28 C-65.81 54.67, -41.39 26.3, -23.71 6.71 M-92.11 90.46 C-72.52 67.05, -52.19 43.01, -15.87 4.34 M-90.29 88.83 C-69.37 63.69, -47.59 39.36, -17.27 4.55 M-91.58 94.19 C-66.16 65.99, -38.56 37.79, -8.46 1.52 M-90.42 95.07 C-69.4 71.68, -47.34 46.71, -10.15 3.14 M-90.59 102.45 C-63.5 70.71, -35.04 35.46, -4.88 0.48 M-89.92 101.74 C-70.29 78.69, -48.15 54.53, -2.8 1.18 M-89.07 107.35 C-67.88 83.13, -48.13 56.32, 1.68 1.3 M-90.35 108.21 C-60.9 75.87, -32.97 42.25, 1.46 2.15 M-91.75 113.59 C-70.79 92.82, -50.07 68.66, 4.49 3.2 M-91.13 114.87 C-53.24 71.67, -17.52 27.33, 5.82 3.03 M-88.57 116.53 C-60.7 89.52, -38.36 61.25, 11.62 6.51 M-87.27 115.59 C-54.29 79.07, -22.44 42.26, 8.91 4.68 M-82.84 118.45 C-58.11 89.66, -33.84 60.66, 14.94 6.3 M-83.04 116.46 C-45.61 76.06, -9.34 33.8, 14.37 5.89 M-77.87 118.82 C-40.4 75.56, -6.44 33.52, 17.67 5.95 M-80.01 118.43 C-54.11 91.53, -29.82 62.91, 16.93 7.43 M-73.91 122.17 C-45.42 88.14, -18.3 58.1, 22.77 7.58 M-75.42 121.68 C-52.88 96.36, -29.46 69.34, 21.4 8.87 M-73.2 121.03 C-33.45 78.48, 5.38 34.88, 27.12 11.13 M-70.67 122.97 C-45.42 94.79, -21.85 65.85, 25.39 12.16 M-68.97 123.26 C-46.55 99.09, -27.98 77.74, 29.21 13.01 M-67.79 123.4 C-33.95 83.89, 1.72 44.21, 29.56 12.62 M-63.89 127.91 C-39.39 102.88, -18.94 76.57, 32.79 12.74 M-63.29 126.75 C-43.96 102.69, -24.11 79.84, 33.83 14.13 M-59.06 128.66 C-26.24 88.32, 6.24 51.77, 37.05 16.02 M-60.61 127.28 C-28.8 89.74, 4.89 52.12, 38.19 14.56 M-55.09 128.62 C-35.63 107.45, -12.86 82.33, 41.08 17.18 M-56.6 129.05 C-30.37 100.34, -6.28 72.19, 41.57 16.68 M-53.07 131.76 C-17.65 91.06, 15.33 54.3, 45.99 18.22 M-51.98 131.75 C-20.32 94.6, 9.83 60.12, 44.7 19.65 M-49.02 130.76 C-26.31 105.14, -3.01 78.63, 50.63 19.5 M-49.2 132.98 C-26.76 108.96, -4.96 84.41, 48.27 20.14 M-42.91 134.38 C-14.81 102.69, 10.72 71.17, 51.23 22.37 M-44.91 134.05 C-19.93 107.41, 6.72 77.56, 53.19 21.37 M-39.7 134.37 C-5.08 97.99, 28.56 56.56, 55.62 24.23 M-40.39 135.37 C-19.98 112.39, -0.07 87.23, 57.34 22.65 M-38.34 136.79 C-2.36 95.03, 36.82 56.2, 59.6 24.98 M-36.07 138.17 C-12.64 107.7, 13.07 79.1, 60.52 24.23 M-34.23 137.93 C5.2 95.13, 46.66 49.49, 65.17 26.07 M-33.34 138.88 C-12.83 116.48, 8.13 93.47, 65.23 26.86 M-28.17 139.68 C-7.21 116.72, 15.14 88.28, 68.15 29.2 M-29.03 140.9 C-8.1 117.75, 14.06 92.96, 68.9 28.8 M-23.49 144.36 C15.02 98.19, 52.16 58.1, 73.89 30.9 M-25.88 141.93 C-0.48 113.62, 25.47 84.92, 72.09 28.96 M-23.01 146.18 C12.9 101.69, 51.06 60.19, 75.45 29.65 M-21.02 143.79 C-1.66 121.68, 16.92 98.9, 77.28 30.39 M-19.47 147.03 C8.34 116.69, 33.7 85.23, 78.07 36.81 M-17.77 146.73 C10.89 113.89, 40.84 80.91, 75.88 37.7 M-12.54 147.88 C19.98 104.53, 57.99 63.12, 77.16 42.16 M-14.17 147.21 C9.91 118.97, 34.7 91.38, 76.79 42.94 M-10.58 148.46 C8.93 125.81, 31.71 104.64, 78.17 50.08 M-10.06 150.01 C20.53 112.32, 51.46 77.69, 76.86 50.33 M-0.34 146.25 C24.04 112.38, 54.99 79.44, 76.17 57.67 M-2.35 145.74 C15.6 124.32, 36.82 102.25, 77 56.77 M4.83 144.82 C30.23 114.18, 57.58 83.6, 77.45 62.62 M5.44 143.48 C28.98 117.23, 51.2 91.12, 76.32 62.12 M12.37 138.24 C37.02 113.47, 63.26 84.05, 74.46 70.59 M15.07 139.79 C36.08 115.6, 56.82 91.32, 75.69 69.06 M23.6 136.84 C45.49 112.51, 63.52 86.83, 76.15 74.82 M23.27 136.75 C40.27 113.7, 60.46 92.61, 76.61 75.12 M31.3 131.51 C45.07 115.49, 55.73 100.88, 74.2 79.77 M31.83 132.83 C46.74 115.4, 62.03 98.6, 76 80.76 M37.35 130.13 C51.85 112.81, 63.41 101.7, 74.05 88.5 M39.87 129.66 C51.26 115.38, 61.43 103.09, 75.81 87.18 M46.34 125.89 C58.7 114.91, 67.47 101.28, 76.47 94.51 M47.97 126.84 C57.79 113.48, 68.68 99.69, 75.14 92.61 M55.22 121.73 C59.49 117.67, 68.58 110.72, 76.54 101.17 M56.4 122.8 C62.5 114.96, 68 108.25, 75.77 100.18 M63.07 118.72 C68.62 115.13, 71.86 112.75, 74.09 105.44 M63.37 119.5 C67.52 115.49, 69.21 112.4, 75.03 105.96 M72.12 115.83 C72.47 115.49, 72.98 114.57, 75.38 112.17 M72.32 115.7 C73.29 114.51, 74.82 113.19, 75.25 112.17" stroke="#be4bdb" stroke-width="0.5" fill="none"></path><path d="M0.07 -0.79 C-20.3 5.88, -41.01 11.54, -91.15 27.91 M-0.73 -0.47 C-21.48 6.63, -41.72 11.6, -88.76 27.75 M-87.8 29.24 C-88.91 50.51, -90.82 69.69, -91.81 114.75 M-88.97 28.53 C-91.06 58.57, -90.51 89.86, -91.5 114.75 M-90.48 114.41 C-65.1 126.19, -40.99 134, -10.5 148.78 M-90.03 113.39 C-63.32 125.92, -36.01 138.93, -11.75 149.68 M-10.52 147.72 C13.65 137.46, 38.05 128.52, 73.69 113.31 M-11.22 148.61 C13.89 137.46, 37.98 127.47, 74.06 114.5 M75.85 115.12 C72.67 96.54, 76.27 77.1, 75.45 31.7 M73.88 114.56 C74.61 84.42, 75.96 54.96, 75.83 30.15 M77.13 31.63 C58.04 25.05, 42.59 17.17, -1.75 -1.98 M76.48 30.12 C58.69 22.37, 38.72 16.45, -0.7 -0.4 M0 0 C0 0, 0 0, 0 0 M0 0 C0 0, 0 0, 0 0" stroke="#881fa3" stroke-width="1" fill="none"></path></g></g><mask></mask><g stroke-opacity="0.6" fill-opacity="0.6" transform="translate(927.2139032080032 159.55069657620317) rotate(0 221.484375 64.8)"><text x="221.484375" y="0" font-family="Cascadia, Segoe UI Emoji" font-size="36px" fill="#1e1e1e" text-anchor="middle" style="white-space: pre;" direction="ltr" dominant-baseline="text-before-edge">CCIP </text><text x="221.484375" y="43.199999999999996" font-family="Cascadia, Segoe UI Emoji" font-size="36px" fill="#1e1e1e" text-anchor="middle" style="white-space: pre;" direction="ltr" dominant-baseline="text-before-edge">via </text><text x="221.484375" y="86.39999999999999" font-family="Cascadia, Segoe UI Emoji" font-size="36px" fill="#1e1e1e" text-anchor="middle" style="white-space: pre;" direction="ltr" dominant-baseline="text-before-edge">Chainlink Oracle DONs</text></g><g stroke-opacity="0.3" fill-opacity="0.3" stroke-linecap="round" transform="translate(1462.3111089972122 67.74605475606955) rotate(0 412.7680276500469 354.78950706885826)"><path d="M7.86 8.16 C7.86 8.16, 7.86 8.16, 7.86 8.16 M7.86 8.16 C7.86 8.16, 7.86 8.16, 7.86 8.16 M4.85 36.01 C8.93 26.3, 22.08 22.42, 34.37 2.05 M4.85 36.01 C15.87 25.15, 22.82 13.14, 34.37 2.05 M4.46 60.85 C22 43.75, 35.8 26.45, 55.63 1.98 M4.46 60.85 C16.41 45.8, 29.48 31.71, 55.63 1.98 M4.72 84.93 C31.3 58.54, 58.26 25.75, 76.89 1.91 M4.72 84.93 C30.9 54.75, 57.27 25, 76.89 1.91 M4.99 109.01 C35.92 68.86, 67.8 29.18, 98.15 1.85 M4.99 109.01 C27.22 82.24, 49.84 53.81, 98.15 1.85 M4.6 133.85 C50.29 86.71, 88.41 30.65, 119.41 1.78 M4.6 133.85 C37.95 95.9, 72.4 58.03, 119.41 1.78 M4.87 157.93 C35.9 117.06, 72.45 76.42, 140.67 1.71 M4.87 157.93 C43.02 111.78, 85.11 65.39, 140.67 1.71 M4.48 182.77 C67.43 112.08, 128.62 38.5, 161.28 2.39 M4.48 182.77 C52.07 129.87, 101.95 72.55, 161.28 2.39 M4.74 206.85 C53.03 149.81, 96.79 94.65, 182.54 2.32 M4.74 206.85 C55.97 146.06, 108.89 86.67, 182.54 2.32 M5.01 230.93 C65.5 161.85, 126.24 89.46, 203.8 2.26 M5.01 230.93 C75.99 149.39, 147.04 64.62, 203.8 2.26 M4.62 255.77 C57.14 192.99, 107.51 134.66, 225.06 2.19 M4.62 255.77 C49.62 198.63, 94.02 145.48, 225.06 2.19 M4.89 279.85 C79.42 198.71, 155.56 109.29, 246.32 2.12 M4.89 279.85 C75.78 196.89, 146.52 114.4, 246.32 2.12 M4.5 304.69 C67.41 230.37, 130.89 157.29, 267.58 2.05 M4.5 304.69 C74.76 227.5, 142.54 148.32, 267.58 2.05 M4.76 328.77 C91.26 230.66, 177.73 132.7, 288.84 1.98 M4.76 328.77 C91.51 226.6, 178.66 126.37, 288.84 1.98 M5.03 352.85 C122.78 218.81, 243.08 81.55, 310.1 1.91 M5.03 352.85 C83.4 262.02, 161.41 174.08, 310.1 1.91 M4.64 377.69 C114.09 248.16, 223.94 121.15, 331.36 1.84 M4.64 377.69 C98.8 265.91, 194.99 155.55, 331.36 1.84 M4.91 401.77 C73.97 320.97, 146.94 239.39, 352.62 1.77 M4.91 401.77 C92.86 305.26, 177.12 207.8, 352.62 1.77 M4.52 426.6 C143.42 265.86, 280.89 107.32, 373.88 1.7 M4.52 426.6 C121.42 299.49, 233.47 167.88, 373.88 1.7 M4.78 450.69 C98.64 343.6, 188.23 240.62, 394.48 2.39 M4.78 450.69 C127.8 311.23, 249.97 170.81, 394.48 2.39 M5.05 474.77 C120.62 341.51, 240.71 204.86, 415.74 2.32 M5.05 474.77 C134.15 327.65, 260.25 182.04, 415.74 2.32 M4.66 499.6 C103.59 379.15, 206.15 259, 437 2.25 M4.66 499.6 C160.89 319.85, 320.38 136.54, 437 2.25 M4.93 523.69 C136.99 372.99, 264.83 226.16, 458.26 2.18 M4.93 523.69 C186.28 313.4, 366.03 105.28, 458.26 2.18 M4.54 548.52 C107.4 434.21, 209.26 318.23, 479.52 2.11 M4.54 548.52 C166.55 357.44, 330.15 168.97, 479.52 2.11 M4.8 572.6 C150.7 407.16, 297.68 238.62, 500.78 2.04 M4.8 572.6 C203.87 346.29, 402.73 117.71, 500.78 2.04 M5.07 596.69 C195.36 381.01, 384.26 160.1, 522.04 1.98 M5.07 596.69 C109.16 471.11, 217.2 347.82, 522.04 1.98 M4.68 621.52 C199.22 401.12, 392.44 179.18, 543.3 1.91 M4.68 621.52 C150.31 454.73, 295.17 288.77, 543.3 1.91 M4.94 645.6 C197.79 428.64, 390.23 207.86, 564.56 1.84 M4.94 645.6 C199.08 422.84, 393.8 197.65, 564.56 1.84 M4.55 670.44 C148.94 498.97, 295.28 330.8, 585.82 1.77 M4.55 670.44 C172.03 479.72, 336.38 291.08, 585.82 1.77 M4.82 694.52 C238.51 428.24, 470.55 163.54, 607.08 1.7 M4.82 694.52 C241.16 429.47, 475.35 160.44, 607.08 1.7 M14.93 707.28 C182.08 523.71, 343.5 337.42, 627.69 2.38 M14.93 707.28 C171.86 526.42, 328.86 345.76, 627.69 2.38 M32.91 710.99 C260.04 446.42, 490.82 185.62, 648.95 2.32 M32.91 710.99 C267.12 449.61, 497.67 184.95, 648.95 2.32 M54.17 710.92 C188.87 560.39, 316.32 414.6, 670.21 2.25 M54.17 710.92 C255.68 481.73, 453.97 254.28, 670.21 2.25 M75.43 710.85 C198.23 567.16, 327.38 419.63, 691.47 2.18 M75.43 710.85 C308 436.12, 543.24 165.18, 691.47 2.18 M96.69 710.78 C231.62 560.02, 367.02 402.13, 712.73 2.11 M96.69 710.78 C314.01 459.52, 529.4 213.25, 712.73 2.11 M117.95 710.71 C243.43 565, 374.41 414.93, 733.99 2.04 M117.95 710.71 C320.92 482.96, 518.85 255.24, 733.99 2.04 M139.21 710.64 C360.01 464.74, 578.05 213.19, 755.25 1.97 M139.21 710.64 C339.71 482.47, 542.06 248.77, 755.25 1.97 M160.47 710.57 C358.5 482.75, 558.78 252.02, 776.51 1.9 M160.47 710.57 C357.2 477.82, 555.08 251.44, 776.51 1.9 M181.73 710.51 C422.72 435.08, 663.16 156.93, 797.11 2.59 M181.73 710.51 C417.92 436.99, 654.56 165.11, 797.11 2.59 M202.99 710.44 C389.85 485.49, 584.33 263.39, 813.78 7.8 M202.99 710.44 C416.88 473.8, 627.52 233.82, 813.78 7.8 M224.25 710.37 C361.03 545.77, 499.71 384.45, 825.2 19.05 M224.25 710.37 C445.27 457.82, 664.99 205.55, 825.2 19.05 M245.51 710.3 C456.5 468.53, 671.51 219.76, 830.71 37.1 M245.51 710.3 C464.28 455.63, 685.05 203.09, 830.71 37.1 M266.11 710.98 C437.39 516.13, 606.48 323.19, 830.98 61.18 M266.11 710.98 C408.97 550.72, 551.1 387.1, 830.98 61.18 M287.37 710.91 C448.86 528.84, 604.89 349.69, 831.25 85.26 M287.37 710.91 C419.93 559, 547.66 412.37, 831.25 85.26 M308.63 710.85 C484.12 511.05, 659.24 307.67, 830.86 110.1 M308.63 710.85 C493.14 506.73, 674.02 297.17, 830.86 110.1 M329.89 710.78 C485.8 529.31, 642.07 350, 831.12 134.18 M329.89 710.78 C520.35 493.31, 707.26 278.27, 831.12 134.18 M351.15 710.71 C451.78 590.94, 554.53 473.55, 830.73 159.02 M351.15 710.71 C490.99 554.42, 628.17 396.54, 830.73 159.02 M372.41 710.64 C502.84 559.53, 635.98 407.72, 831 183.1 M372.41 710.64 C489.36 578.58, 605.09 445.09, 831 183.1 M393.67 710.57 C528.25 550.04, 664.51 392.14, 831.27 207.18 M393.67 710.57 C496.5 590.66, 598.81 472.54, 831.27 207.18 M414.94 710.5 C538.04 567.89, 660.68 429.35, 830.88 232.02 M414.94 710.5 C572.32 527.64, 732.89 343.26, 830.88 232.02 M436.2 710.43 C572.63 553.66, 712.74 395.03, 831.14 256.1 M436.2 710.43 C546.9 584.52, 657.12 456.85, 831.14 256.1 M457.46 710.36 C539.97 617.62, 619.98 522.41, 830.75 280.93 M457.46 710.36 C564.56 584.97, 675.2 457.84, 830.75 280.93 M478.72 710.29 C601.73 567.9, 726.09 425.32, 831.02 305.02 M478.72 710.29 C563.57 611.52, 648.55 514.22, 831.02 305.02 M499.32 710.98 C628.41 561.2, 754.65 413.43, 831.29 329.1 M499.32 710.98 C611.12 578.4, 724.76 448.64, 831.29 329.1 M520.58 710.91 C609 614.28, 692.74 517.25, 830.9 353.93 M520.58 710.91 C604.54 618.5, 686.84 522.54, 830.9 353.93 M541.84 710.84 C638.58 598.44, 736.06 487.5, 831.16 378.01 M541.84 710.84 C629.45 609.96, 720.54 505.16, 831.16 378.01 M563.1 710.77 C674.33 590.59, 779.43 468.71, 830.77 402.85 M563.1 710.77 C626.42 637.34, 686.7 567.1, 830.77 402.85 M584.36 710.7 C644.19 643.54, 702.83 575.92, 831.04 426.93 M584.36 710.7 C638.74 647.46, 692.4 586.1, 831.04 426.93 M605.62 710.63 C675.42 633.11, 748.09 548.85, 831.31 451.01 M605.62 710.63 C681.84 622.46, 756.08 535.6, 831.31 451.01 M626.88 710.57 C679.81 650.98, 735 593.95, 830.92 475.85 M626.88 710.57 C688.42 640.72, 748.61 569.58, 830.92 475.85 M648.14 710.5 C712.51 640.75, 771.83 570.45, 831.18 499.93 M648.14 710.5 C705.73 642.95, 763.27 576.69, 831.18 499.93 M669.4 710.43 C705.59 676.8, 736.72 637.48, 830.79 524.77 M669.4 710.43 C707.7 666.25, 746.75 620.91, 830.79 524.77 M690.66 710.36 C738.7 659.13, 780.41 606.89, 831.06 548.85 M690.66 710.36 C721.62 672.57, 752.49 637.44, 831.06 548.85 M711.92 710.29 C752.45 668.76, 788.02 621.41, 831.32 572.93 M711.92 710.29 C750.71 667.57, 789.78 624.92, 831.32 572.93 M732.53 710.98 C753.2 685.43, 777.61 664.87, 830.93 597.77 M732.53 710.98 C757.92 681.99, 782.71 654.04, 830.93 597.77 M753.79 710.91 C768.82 691.94, 790.5 668.19, 831.2 621.85 M753.79 710.91 C778.49 686.64, 799.16 661.34, 831.2 621.85 M775.05 710.84 C793.93 689.71, 815.89 672.06, 830.81 646.69 M775.05 710.84 C791.66 687.44, 809.5 667.44, 830.81 646.69 M795.65 711.52 C802.33 700.43, 811.09 689.86, 831.08 670.77 M795.65 711.52 C803.23 702.67, 816.08 689.57, 831.08 670.77" stroke="#b2f2bb" stroke-width="2" fill="none"></path><path d="M32 0 M32 0 C222.87 -1.63, 412.65 -3.64, 793.54 0 M32 0 C236.8 -2.75, 442.13 -2.59, 793.54 0 M793.54 0 C810.99 3.72, 824.03 8.79, 825.54 32 M793.54 0 C815.5 1.04, 828.93 8.73, 825.54 32 M825.54 32 C826.27 276.29, 825.51 520.53, 825.54 677.58 M825.54 32 C826.24 273.77, 827.43 514.46, 825.54 677.58 M825.54 677.58 C826.41 700.24, 817.54 712.41, 793.54 709.58 M825.54 677.58 C828.73 697.64, 813.08 711.61, 793.54 709.58 M793.54 709.58 C633.18 714.91, 470.62 716.2, 32 709.58 M793.54 709.58 C631.84 709.34, 471.97 709.57, 32 709.58 M32 709.58 C12.93 712.44, 1.16 697.81, 0 677.58 M32 709.58 C7.05 705.74, 3.97 701.43, 0 677.58 M0 677.58 C-4.68 462.7, -2.5 245.16, 0 32 M0 677.58 C4.86 448.03, 3.82 217.41, 0 32 M0 32 C-3.33 10.81, 9.3 3.46, 32 0 M0 32 C2.88 12.91, 14.67 3.63, 32 0" stroke="#2f9e44" stroke-width="4" fill="none"></path></g><g stroke-linecap="round"><g stroke-opacity="0.6" fill-opacity="0.6" transform="translate(1685.7160042286027 376.6873449148871) rotate(0 35.66045032015256 59.18511268221237)"><path d="M-0.52 0.57 C12.43 20.98, 63.23 100.23, 75.57 119.97 M-4.25 -1.6 C8.68 18.19, 61.64 94.95, 74.27 115.57" stroke="#1e1e1e" stroke-width="2" fill="none"></path></g><g stroke-opacity="0.6" fill-opacity="0.6" transform="translate(1685.7160042286027 376.6873449148871) rotate(0 35.66045032015256 59.18511268221237)"><path d="M74.76 115.29 L63.09 108.81 L70.9 101.41 L78.22 114.86" stroke="none" stroke-width="0" fill="#1e1e1e" fill-rule="evenodd"></path><path d="M74.88 117.43 C72.77 113.4, 68.84 114.53, 62.77 105.68 M74.89 114.52 C70.96 115.14, 69.64 112.5, 60.79 108.72 M61.34 107.85 C65.17 107.1, 70.04 104.04, 72.07 102.26 M61.08 106.81 C64.06 105.42, 67.6 104.19, 71.44 100.58 M73.77 99.45 C72.86 106.28, 72.64 113.2, 72.7 117.12 M71.81 99.35 C71.87 103.91, 74.41 107.18, 73.93 115.13 M74.27 115.57 C74.27 115.57, 74.27 115.57, 74.27 115.57 M74.27 115.57 C74.27 115.57, 74.27 115.57, 74.27 115.57" stroke="#1e1e1e" stroke-width="2" fill="none"></path></g></g><mask></mask><g stroke-linecap="round" transform="translate(2071.291858878639 147.61557218498308) rotate(0 48.57227331786294 39.20894352164842)"><path d="M0.81 -0.24 C27.43 1.09, 55.51 -1.93, 95.54 -1.39 M-0.41 0.89 C28.75 0.96, 55.86 1.38, 97.64 0.35 M97.14 1.32 C98 17.46, 97.05 34.48, 96.02 78.13 M97.09 -0.55 C97.58 18.27, 96.33 36.78, 98.04 78.36 M97.09 78.28 C63.48 78.62, 30.3 79.04, -0.9 80.17 M96.44 77.99 C75.4 76.76, 52.19 77.24, -0.92 77.72 M1.75 80.27 C-1.11 47.58, -0.69 17.63, 1.16 -1.21 M-0.4 79.05 C-0.08 52.2, -0.25 27.05, 0.12 -0.07" stroke="#000000" stroke-width="1" fill="none"></path></g><g stroke-linecap="round" transform="translate(2068.951026429585 174.53514534909988) rotate(0 26.919573164116855 12.874578469795011)"><path d="M6.44 0 M6.44 0 C21.35 1.74, 36.92 -1.28, 47.4 0 M6.44 0 C15.85 -0.66, 24.03 0.93, 47.4 0 M47.4 0 C52.85 0.57, 52.87 3.55, 53.84 6.44 M47.4 0 C52.83 0.82, 51.82 1.98, 53.84 6.44 M53.84 6.44 C54.42 10.92, 53.81 15.12, 53.84 19.31 M53.84 6.44 C53.6 9.14, 53.79 12.36, 53.84 19.31 M53.84 19.31 C55.25 23.24, 50.62 25.52, 47.4 25.75 M53.84 19.31 C55.9 23.47, 52.58 27.01, 47.4 25.75 M47.4 25.75 C36.09 26.33, 25.26 26.75, 6.44 25.75 M47.4 25.75 C36.74 24.55, 25.79 25.04, 6.44 25.75 M6.44 25.75 C3.39 24.22, -0.45 23.02, 0 19.31 M6.44 25.75 C0.04 24.15, 1.76 24.51, 0 19.31 M0 19.31 C-0.63 13.98, -0.36 9.22, 0 6.44 M0 19.31 C0.39 14.62, -0.18 10.5, 0 6.44 M0 6.44 C0.61 0.72, 2.41 -0.71, 6.44 0 M0 6.44 C0.28 1.98, 3.05 0.65, 6.44 0" stroke="#000000" stroke-width="1" fill="none"></path></g><g transform="translate(2086.5072697974874 234.81158091223108) rotate(0 35.69667053222656 15.215410918848647)"><text x="0" y="0" font-family="Virgil, Segoe UI Emoji" font-size="23.408324490536376px" fill="#000000" text-anchor="start" style="white-space: pre;" direction="ltr" dominant-baseline="text-before-edge">Wallet</text></g><g stroke-linecap="round" transform="translate(1535.9371295454969 185.96516667946656) rotate(0 68.86230064008987 104.4947147419448)"><path d="M1.99 -0.65 L137.24 -0.38 L138.15 207.75 L-0.51 209.13" stroke="none" stroke-width="0" fill="#fff"></path><path d="M-1.6 -1.39 C52.79 1.74, 104.59 0.09, 139.5 1.15 M0.5 0.35 C44.38 -1.03, 90.59 -0.97, 138.39 0.46 M136.73 -0.26 C136.54 70.69, 136.48 142.52, 136.75 210.24 M138.52 -0.05 C137.07 59.39, 136.35 117.78, 137.66 208.65 M136.83 210.75 C90.78 209.28, 44.79 208.29, -0.85 210.23 M136.81 208.29 C107.72 208.99, 76.67 209.47, 0.92 208.59 M1.03 207.92 C0.8 160.91, 0.12 110.41, 1.11 0.54 M0.11 208.93 C0.1 161.4, -0.52 113.45, 0.87 -0.16" stroke="#000000" stroke-width="2" fill="none"></path></g><g stroke-linecap="round"><g transform="translate(1552.5166383955095 274.19873149344915) rotate(0 47.40800549654733 -3.142922781938367)"><path d="M-0.83 -0.12 C13.29 -0.04, 67.86 0.35, 83.94 -0.51 C100.02 -1.38, 93.5 -4.39, 95.65 -5.32 M0.93 -1.23 C15.01 -0.94, 67.63 1.56, 83.25 0.59 C98.87 -0.39, 92.26 -6.21, 94.63 -7.1" stroke="#000000" stroke-width="1" fill="none"></path></g></g><mask></mask><g stroke-linecap="round"><g transform="translate(1556.3460208280578 209.25197333929623) rotate(0 47.02252100538027 -2.508033230074261)"><path d="M0.5 -0.84 C6.34 -1.6, 18.54 -4.8, 34.25 -4.72 C49.96 -4.63, 84.88 -1.15, 94.75 -0.33 M-0.7 1.34 C5.02 0.27, 17.2 -5.64, 33.04 -6.28 C48.88 -6.92, 84.28 -3.22, 94.34 -2.49" stroke="#000000" stroke-width="1" fill="none"></path></g></g><mask></mask><g stroke-linecap="round"><g transform="translate(1556.187913571095 348.3591133795811) rotate(0 50.215711580491075 1.0148057552681315)"><path d="M-0.49 1.07 C8.62 1.18, 42.28 -0.94, 55.21 -0.18 C68.14 0.58, 69.54 6.19, 77.07 5.62 C84.6 5.04, 96.76 -2, 100.37 -3.63 M1.45 0.58 C10.42 0.39, 42.2 -2.65, 54.62 -2.13 C67.05 -1.6, 68.28 3.75, 76 3.72 C83.72 3.69, 96.87 -1.05, 100.93 -2.3" stroke="#000000" stroke-width="1" fill="none"></path></g></g><mask></mask><g stroke-linecap="round"><g transform="translate(1549.6157968036152 371.5658311072366) rotate(0 55.989549182161454 -1.2520887977201056)"><path d="M0.69 0.34 C4.17 -0.1, 14.87 -1.29, 20.4 -1.57 C25.94 -1.84, 21.55 -1.77, 33.89 -1.31 C46.23 -0.85, 81.35 1.75, 94.43 1.18 C107.51 0.61, 109.27 -3.85, 112.38 -4.75 M-0.41 -0.52 C3.52 -0.78, 17.17 -2.76, 22.81 -3.25 C28.45 -3.73, 21.55 -4.35, 33.44 -3.43 C45.32 -2.52, 81.2 2.39, 94.12 2.24 C107.04 2.08, 108.1 -3.16, 110.96 -4.36" stroke="#000000" stroke-width="1" fill="none"></path></g></g><mask></mask><g stroke-linecap="round"><g transform="translate(1550.2037343131171 240.33820615979937) rotate(0 48.78453568869554 1.1262308876724916)"><path d="M-0.58 0.84 C5.66 0.65, 22.08 -1.29, 38.15 -0.79 C54.21 -0.3, 86.01 3.02, 95.81 3.8 M1.31 0.24 C7.39 -0.35, 21.37 -3.5, 37.51 -2.69 C53.65 -1.89, 88.2 3.8, 98.15 5.08" stroke="#000000" stroke-width="1" fill="none"></path></g></g><mask></mask><g stroke-linecap="round"><g transform="translate(1550.4255981662425 311.51443315466315) rotate(0 48.88457082941011 1.599177950770482)"><path d="M0.6 0.43 C3.3 0.76, 9.48 3.14, 15.65 2.86 C21.83 2.59, 23.97 -1.49, 37.64 -1.23 C51.31 -0.96, 87.7 3.59, 97.66 4.44 M-0.55 -0.4 C2.56 0.06, 11.57 4.27, 17.81 4.36 C24.06 4.44, 23.5 0.45, 36.92 0.09 C50.33 -0.28, 88.45 1.48, 98.32 2.17" stroke="#000000" stroke-width="1" fill="none"></path></g></g><mask></mask><g transform="translate(1493.1004543396991 399.9505228741622) rotate(0 114.84375 33.6)"><text x="114.84375" y="0" font-family="Cascadia, Segoe UI Emoji" font-size="28px" fill="#000000" text-anchor="middle" style="white-space: pre;" direction="ltr" dominant-baseline="text-before-edge">Router</text><text x="114.84375" y="33.6" font-family="Cascadia, Segoe UI Emoji" font-size="28px" fill="#000000" text-anchor="middle" style="white-space: pre;" direction="ltr" dominant-baseline="text-before-edge">Smart Contract</text></g><g stroke-opacity="0.6" fill-opacity="0.6" transform="translate(1742.0021034333868 71.03774385946087) rotate(0 124.12645721435547 34.724840749442535)"><text x="124.12645721435547" y="0" font-family="Virgil, Segoe UI Emoji" font-size="55.55974519910805px" fill="#f08c00" text-anchor="middle" style="white-space: pre;" direction="ltr" dominant-baseline="text-before-edge">SEPOLIA</text></g><g stroke-opacity="0.6" fill-opacity="0.6" transform="translate(1809.356366792092 273.8386545352517) rotate(0 46.875 24)"><text x="46.875" y="0" font-family="Cascadia, Segoe UI Emoji" font-size="20px" fill="#e03131" text-anchor="middle" style="white-space: pre;" direction="ltr" dominant-baseline="text-before-edge">CCIP-BnM</text><text x="46.875" y="24" font-family="Cascadia, Segoe UI Emoji" font-size="20px" fill="#e03131" text-anchor="middle" style="white-space: pre;" direction="ltr" dominant-baseline="text-before-edge">Tokens</text></g><g stroke-linecap="round" transform="translate(1667.429833361922 513.6321148014997) rotate(0 68.86230064008987 104.49471474194479)"><path d="M-0.48 -0.23 L136.92 0.76 L135.94 208.11 L0.24 207.69" stroke="none" stroke-width="0" fill="#fff"></path><path d="M-0.04 1.21 C49.29 -0.86, 99.54 -1.27, 136.36 -0.11 M-0.54 -0.12 C34.65 0.19, 67.88 0.8, 137.3 -0.03 M136.8 0.91 C136.23 62.78, 135.79 122.08, 136.1 207.74 M137.53 -0.26 C138.06 53.24, 139.55 108.06, 138.15 209.76 M137.35 207.25 C84.84 206.87, 30.13 209.06, -0.26 208.19 M137.86 208.63 C87.88 207.94, 38.19 208.3, -0.31 209.16 M-0.58 208.56 C-0.01 126, -0.77 41.82, 0.13 -0.43 M0.23 208.61 C1.16 156.66, 1.94 104.35, -0.15 -0.83" stroke="#000000" stroke-width="2" fill="none"></path></g><g stroke-linecap="round"><g transform="translate(1684.0093422119346 601.8656796154822) rotate(0 47.68836949083925 -2.7627802565105952)"><path d="M0.73 -0.67 C14.52 -0.75, 67.43 0.64, 83.26 -0.45 C99.1 -1.54, 93.59 -6.1, 95.73 -7.2 M-0.35 1.59 C13.23 1.65, 66.38 1.99, 82.22 0.68 C98.07 -0.64, 92.39 -5.15, 94.74 -6.31" stroke="#000000" stroke-width="1" fill="none"></path></g></g><mask></mask><g stroke-linecap="round"><g transform="translate(1687.838724644483 536.9189214613293) rotate(0 46.13231806527381 -2.587983980728346)"><path d="M-0.18 -0.78 C5.42 -1.77, 18.63 -6.51, 34.32 -6.6 C50.02 -6.7, 83.9 -2.29, 93.99 -1.34 M-1.73 1.43 C3.61 0.63, 17.34 -5.2, 33.16 -5.5 C48.98 -5.8, 82.79 -1.3, 93.19 -0.36" stroke="#000000" stroke-width="1" fill="none"></path></g></g><mask></mask><g stroke-linecap="round"><g transform="translate(1687.68061738752 676.0260615016142) rotate(0 49.35309865780118 0.8022926573623863)"><path d="M-0.42 -0.82 C8.69 -0.89, 41.3 -2.08, 54.45 -1.19 C67.61 -0.29, 71.05 5.06, 78.5 4.56 C85.94 4.06, 95.4 -2.75, 99.12 -4.19 M1.56 1.37 C10.52 1.51, 40.7 -0.73, 53.47 0 C66.24 0.74, 70.58 6.29, 78.17 5.76 C85.77 5.24, 95.41 -1.57, 99.03 -3.16" stroke="#000000" stroke-width="1" fill="none"></path></g></g><mask></mask><g stroke-linecap="round"><g transform="translate(1681.1085006200403 699.2327792292697) rotate(0 55.604256711110224 -0.8858708285567616)"><path d="M-0.06 -0.66 C3.64 -0.96, 16.38 -2.42, 21.83 -2.63 C27.28 -2.83, 20.19 -2.51, 32.65 -1.88 C45.1 -1.24, 83.21 1.56, 96.56 1.19 C109.91 0.83, 110.23 -3.09, 112.76 -4.08 M-1.56 1.61 C2.1 1.56, 15.81 -0.83, 21.32 -1.2 C26.84 -1.58, 19.48 -1.21, 31.54 -0.63 C43.61 -0.05, 80.38 2.71, 93.71 2.26 C107.05 1.81, 108.33 -2, 111.54 -3.35" stroke="#000000" stroke-width="1" fill="none"></path></g></g><mask></mask><g stroke-linecap="round"><g transform="translate(1681.6964381295422 568.0051542818325) rotate(0 48.88517876112178 1.7919193049154245)"><path d="M0.85 -0.22 C7.01 -0.33, 20.73 -2.03, 36.91 -1.36 C53.09 -0.69, 87.87 2.83, 97.94 3.82 M-0.17 -1.38 C6.39 -1.24, 22.96 -0.97, 39.28 0.11 C55.6 1.19, 87.98 4.73, 97.74 5.1" stroke="#000000" stroke-width="1" fill="none"></path></g></g><mask></mask><g stroke-linecap="round"><g transform="translate(1681.9183019826676 639.1813812766962) rotate(0 47.85437368649798 1.1918206803564004)"><path d="M-0.65 -0.14 C2.18 0.38, 11.34 2.95, 17.78 2.88 C24.23 2.81, 24.92 -0.72, 38.02 -0.56 C51.11 -0.4, 86.56 3.19, 96.35 3.86 M1.22 -1.26 C3.9 -0.52, 11.35 4.59, 17.4 4.38 C23.45 4.16, 24.34 -2.65, 37.5 -2.56 C50.65 -2.46, 86.71 3.92, 96.33 4.94" stroke="#000000" stroke-width="1" fill="none"></path></g></g><mask></mask><g transform="translate(1633.7179735134423 719.6575256844922) rotate(0 114.84375 33.599999999999994)"><text x="114.84375" y="0" font-family="Cascadia, Segoe UI Emoji" font-size="28px" fill="#000000" text-anchor="middle" style="white-space: pre;" direction="ltr" dominant-baseline="text-before-edge">Protocol.sol</text><text x="114.84375" y="33.6" font-family="Cascadia, Segoe UI Emoji" font-size="28px" fill="#000000" text-anchor="middle" style="white-space: pre;" direction="ltr" dominant-baseline="text-before-edge">Smart Contract</text></g><g stroke-linecap="round"><g stroke-opacity="0.6" fill-opacity="0.6" transform="translate(1713.3310023046672 317.82701369549375) rotate(0 168.16005900777395 -47.40448227564303)"><path d="M1.08 1.54 C57.01 -14.49, 281.76 -79.87, 338.09 -96.35 M-1.77 -0.1 C53.45 -15.64, 278.72 -76.97, 335.21 -92.76" stroke="#1e1e1e" stroke-width="2" fill="none"></path></g><g stroke-opacity="0.6" fill-opacity="0.6" transform="translate(1713.3310023046672 317.82701369549375) rotate(0 168.16005900777395 -47.40448227564303)"><path d="M336.16 -92.65 L323.69 -79.89 L318.23 -98.06 L332.65 -91.25" stroke="none" stroke-width="0" fill="#1e1e1e" fill-rule="evenodd"></path><path d="M336.86 -94.03 C330.66 -89.09, 325.15 -84.17, 322.22 -81.49 M334.9 -94.13 C331.41 -91.07, 330.48 -89.11, 323.45 -83.47 M324.79 -81.81 C325.48 -83.19, 321.54 -89.75, 319.94 -97.46 M324.4 -83.2 C322.22 -86.6, 321.91 -92.67, 320.59 -95.71 M321.27 -96.18 C325.55 -91.63, 329.12 -90.83, 334.23 -93.49 M320.04 -95.15 C324.22 -95.11, 327.57 -92.59, 335.6 -93.41 M335.21 -92.76 C335.21 -92.76, 335.21 -92.76, 335.21 -92.76 M335.21 -92.76 C335.21 -92.76, 335.21 -92.76, 335.21 -92.76" stroke="#1e1e1e" stroke-width="2" fill="none"></path></g></g><mask></mask><g stroke-linecap="round" transform="translate(2098.3838078910953 420.809738770398) rotate(0 47.372255296986964 71.88476507361106)"><path d="M-0.12 -1.55 L94.44 1.18 L93.99 142.18 L0.72 143.39" stroke="none" stroke-width="0" fill="#fff"></path><path d="M1.66 1.77 C20.35 -0.13, 39.3 -0.73, 93.17 0.07 M-0.34 0.88 C18.63 -0.59, 39.41 -0.95, 93.84 -0.83 M95.48 -1.5 C96.75 41.01, 93.66 84.55, 92.82 144.36 M95.13 0.04 C94.89 54.26, 93.09 109.8, 95.56 143.91 M92.99 145.67 C73.6 144.42, 52.96 143.15, -1 145.61 M95.71 144.54 C71.31 144.25, 47.41 144.57, 0.58 143.58 M-0.3 144.79 C-1.71 94.32, -0.33 46.38, -0.35 -1.64 M0.39 143.71 C-1.85 94.09, 0.07 42.33, -0.19 -0.09" stroke="#000000" stroke-width="2" fill="none"></path></g><g stroke-linecap="round"><g transform="translate(2109.78930434766 481.5080151753231) rotate(0 33.090399873443175 -2.0094808576137986)"><path d="M1.06 0.76 C10.56 0.74, 46.81 1.92, 57.64 0.9 C68.46 -0.11, 64.59 -4.26, 66.02 -5.34 M0.16 0.11 C9.46 0.28, 45.98 -0.09, 56.81 -0.86 C67.65 -1.63, 63.58 -3.82, 65.19 -4.52" stroke="#000000" stroke-width="1" fill="none"></path></g></g><mask></mask><g stroke-linecap="round"><g transform="translate(2112.423640995409 436.8293683774112) rotate(0 31.82458587810595 -2.140150712470586)"><path d="M0.24 0.68 C4.02 -0.27, 13.03 -4.54, 23.78 -4.93 C34.53 -5.31, 57.78 -2.36, 64.75 -1.63 M-1.1 -0.01 C2.43 -0.9, 11.92 -3.73, 22.77 -3.89 C33.62 -4.04, 56.75 -1.66, 64 -0.92" stroke="#000000" stroke-width="1" fill="none"></path></g></g><mask></mask><g stroke-linecap="round"><g transform="translate(2112.314874699896 532.5249651025904) rotate(0 33.305506589421725 0.4041508905419704)"><path d="M-0.12 -0.95 C6.1 -1.31, 28.48 -2.22, 37.55 -1.53 C46.62 -0.83, 49.19 3.26, 54.31 3.22 C59.42 3.19, 65.96 -0.6, 68.22 -1.73 M-1.65 1.17 C4.4 0.85, 27.35 -1.15, 36.62 -0.6 C45.9 -0.04, 48.74 5.03, 54.01 4.5 C59.28 3.98, 65.64 -2.38, 68.26 -3.73" stroke="#000000" stroke-width="1" fill="none"></path></g></g><mask></mask><g stroke-linecap="round"><g transform="translate(2107.7937362764515 548.4894993481918) rotate(0 38.48592351075308 -1.9193177647324973)"><path d="M0.04 -1.16 C2.62 -1.29, 11.58 -1.89, 15.32 -1.72 C19.07 -1.55, 14.22 -0.44, 22.49 -0.14 C30.77 0.17, 55.64 0.81, 64.95 0.09 C74.26 -0.63, 76.5 -3.74, 78.36 -4.46 M-1.39 0.84 C1.11 0.99, 11.03 0.24, 14.84 -0.22 C18.66 -0.68, 13.18 -2.09, 21.51 -1.92 C29.84 -1.76, 55.49 1.25, 64.81 0.79 C74.14 0.33, 75.44 -4.21, 77.47 -4.7" stroke="#000000" stroke-width="1" fill="none"></path></g></g><mask></mask><g stroke-linecap="round"><g transform="translate(2108.1981945292246 458.21443602264065) rotate(0 34.15384640399748 0.607322720541859)"><path d="M0.89 -0.07 C5.12 0.16, 14.59 -0.11, 25.42 0.22 C36.26 0.55, 58.85 1.69, 65.9 1.9 M-0.1 -1.15 C3.93 -1.13, 12.84 -2.01, 24.26 -1.35 C35.68 -0.69, 61.63 2.26, 68.41 2.81" stroke="#000000" stroke-width="1" fill="none"></path></g></g><mask></mask><g stroke-linecap="round"><g transform="translate(2108.3508207266323 507.17850438712424) rotate(0 32.56744363394944 0.18921912289050624)"><path d="M-0.41 1.06 C1.23 1.28, 6.2 1.77, 10.76 1.25 C15.32 0.73, 17.81 -2.11, 26.94 -2.04 C36.07 -1.97, 58.93 0.8, 65.55 1.69 M1.58 0.57 C3.53 0.93, 8.89 2.7, 13.08 2.38 C17.28 2.06, 18.07 -1.33, 26.76 -1.35 C35.45 -1.37, 58.82 1.39, 65.22 2.27" stroke="#000000" stroke-width="1" fill="none"></path></g></g><mask></mask><g transform="translate(2037.306677398363 562.2601341278728) rotate(0 111.48046875 32.62140421843603)"><text x="111.48046875" y="0" font-family="Cascadia, Segoe UI Emoji" font-size="27.184503515363364px" fill="#000000" text-anchor="middle" style="white-space: pre;" direction="ltr" dominant-baseline="text-before-edge">MockUSDC.sol</text><text x="111.48046875" y="32.621404218436034" font-family="Cascadia, Segoe UI Emoji" font-size="27.184503515363364px" fill="#000000" text-anchor="middle" style="white-space: pre;" direction="ltr" dominant-baseline="text-before-edge">Smart Contract</text></g><g stroke-opacity="0.6" fill-opacity="0.6" transform="translate(1709.2463101889766 387.0277635264554) rotate(0 23.4375 12)"><text x="23.4375" y="0" font-family="Cascadia, Segoe UI Emoji" font-size="20px" fill="#e03131" text-anchor="middle" style="white-space: pre;" direction="ltr" dominant-baseline="text-before-edge">Data</text></g><g stroke-linecap="round"><g stroke-opacity="0.4" fill-opacity="0.4" transform="translate(1822.1951530184701 584.8819942533229) rotate(0 154.1510335945718 -155.69578583422611)"><path d="M0.47 0.48 C44.55 -28.42, 214.12 -121.06, 265.55 -173.12 C316.98 -225.18, 301.79 -288.99, 309.05 -311.87 M-0.75 -0.31 C43.58 -29.05, 216.1 -119.89, 267.64 -171.67 C319.17 -223.45, 301.48 -287.47, 308.47 -310.97" stroke="#1e1e1e" stroke-width="4" fill="none"></path></g><g stroke-opacity="0.4" fill-opacity="0.4" transform="translate(1822.1951530184701 584.8819942533229) rotate(0 154.1510335945718 -155.69578583422611)"><path d="M307.49 -312.84 L315.81 -295.09 L301.25 -298.11 L307.6 -309.83" stroke="none" stroke-width="0" fill="#1e1e1e" fill-rule="evenodd"></path><path d="M309.07 -312.46 C310.38 -305.11, 311.69 -299.59, 314.64 -298.04 M307.8 -310.76 C309.44 -306.68, 311.24 -303.25, 314.16 -297.37 M312.59 -297.98 C310.17 -296.49, 305.97 -298.25, 301.49 -296.86 M313.86 -296.53 C309.92 -297.61, 305.01 -297.99, 301.38 -298.35 M299.92 -296.92 C304.55 -303.41, 306.25 -307.69, 308.15 -309.93 M301.81 -298.31 C304.06 -301.1, 306.01 -305.34, 308.48 -310.52 M308.47 -310.97 C308.47 -310.97, 308.47 -310.97, 308.47 -310.97 M308.47 -310.97 C308.47 -310.97, 308.47 -310.97, 308.47 -310.97" stroke="#1e1e1e" stroke-width="4" fill="none"></path></g></g><mask></mask><g stroke-opacity="0.6" fill-opacity="0.6" transform="translate(1949.5818259769421 419.8170208270276) rotate(0 58.59375 24)"><text x="58.59375" y="0" font-family="Cascadia, Segoe UI Emoji" font-size="20px" fill="#e03131" text-anchor="middle" style="white-space: pre;" direction="ltr" dominant-baseline="text-before-edge">Borrow</text><text x="58.59375" y="24" font-family="Cascadia, Segoe UI Emoji" font-size="20px" fill="#e03131" text-anchor="middle" style="white-space: pre;" direction="ltr" dominant-baseline="text-before-edge">StableCoin</text></g><g stroke-opacity="0.6" fill-opacity="0.6" transform="translate(657.201302120265 264.696796798043) rotate(0 70.3125 24)"><text x="70.3125" y="0" font-family="Cascadia, Segoe UI Emoji" font-size="20px" fill="#e03131" text-anchor="middle" style="white-space: pre;" direction="ltr" dominant-baseline="text-before-edge">Fees paid in</text><text x="70.3125" y="24" font-family="Cascadia, Segoe UI Emoji" font-size="20px" fill="#e03131" text-anchor="middle" style="white-space: pre;" direction="ltr" dominant-baseline="text-before-edge">LINK or AVAX</text></g><g stroke-linecap="round"><g stroke-opacity="0.6" fill-opacity="0.6" transform="translate(645.7751483255131 225.2177759055895) rotate(0 184.3066679272932 -44.71890900043931)"><path d="M-2.69 0.57 C12.66 -14.09, 30.77 -89.88, 93.1 -90.01 C155.44 -90.14, 325.01 -14.77, 371.31 -0.18 M1.04 -1.58 C17.25 -15.61, 37.12 -85.98, 98.76 -86.5 C160.4 -87.02, 325.25 -19.11, 370.89 -4.71" stroke="#1e1e1e" stroke-width="2" fill="none"></path></g><g stroke-opacity="0.6" fill-opacity="0.6" transform="translate(645.7751483255131 225.2177759055895) rotate(0 184.3066679272932 -44.71890900043931)"><path d="M369.67 -8.42 L358.75 -2.04 L357.29 -14.1 L374.71 -3.99" stroke="none" stroke-width="0" fill="#1e1e1e" fill-rule="evenodd"></path><path d="M371.51 -6.19 C365.64 -1.79, 362.85 -1.78, 355.47 -2.39 M369.44 -6.01 C367.68 -5.58, 361.68 -4.91, 356.9 -4.56 M356.54 -5.11 C354.66 -5.23, 359.25 -5.85, 361.25 -12.74 M356.16 -3.88 C356.56 -6.35, 359.6 -11.93, 359.24 -15.09 M359.22 -18.05 C366.27 -14.41, 370.43 -9.92, 368.99 -5.3 M360.64 -15.58 C363.26 -10.75, 366.37 -8.27, 370.8 -5.7 M370.89 -4.71 C370.89 -4.71, 370.89 -4.71, 370.89 -4.71 M370.89 -4.71 C370.89 -4.71, 370.89 -4.71, 370.89 -4.71" stroke="#1e1e1e" stroke-width="2" fill="none"></path></g></g><mask></mask><g stroke-linecap="round"><g stroke-opacity="0.6" fill-opacity="0.6" transform="translate(1542.1732279246332 184.9651666794665) rotate(0 -168.4641186457988 -27.54321886421178)"><path d="M-0.73 -0.88 C-24.82 -13.53, -87.21 -80.19, -143.49 -75.89 C-199.77 -71.6, -305.71 8.85, -338.41 24.88 M4.07 -3.82 C-20.46 -17.25, -88.05 -83.87, -145.57 -79.79 C-203.08 -75.7, -308.5 3.78, -341 20.69" stroke="#1e1e1e" stroke-width="2" fill="none"></path></g><g stroke-opacity="0.6" fill-opacity="0.6" transform="translate(1542.1732279246332 184.9651666794665) rotate(0 -168.4641186457988 -27.54321886421178)"><path d="M-344.25 18.06 L-336.76 6.81 L-327.62 20.55 L-344.26 22.77" stroke="none" stroke-width="0" fill="#1e1e1e" fill-rule="evenodd"></path><path d="M-341.94 21.01 C-336.03 14.96, -332.83 9.37, -335.11 9.58 M-341.62 21 C-337.74 18.59, -334.86 14.94, -331.45 8.58 M-332.99 6.09 C-329.67 9.43, -327.85 16.41, -327.87 20.82 M-332.13 7.97 C-331.3 11.69, -329.08 15.13, -325.62 19.29 M-327.89 16.55 C-329.6 20.08, -339.05 18.07, -338.78 22.78 M-327.2 18.28 C-330.42 19.64, -336.74 21.47, -340.79 21.18 M-341 20.69 C-341 20.69, -341 20.69, -341 20.69 M-341 20.69 C-341 20.69, -341 20.69, -341 20.69" stroke="#1e1e1e" stroke-width="2" fill="none"></path></g></g><mask></mask><g stroke-linecap="round" transform="translate(2181.852066779349 136.0703406266045) rotate(0 10.449446382606084 8.103452490925775)"><path d="M4.21 0.04 C6 -1.24, 8.44 -0.2, 10.97 -0.04 C13.51 0.12, 17.88 0.04, 19.43 1 C20.98 1.96, 20.3 3.71, 20.27 5.74 C20.23 7.77, 20.49 11.64, 19.21 13.19 C17.93 14.73, 14.83 14.56, 12.57 14.99 C10.31 15.42, 7.36 16.12, 5.66 15.77 C3.96 15.42, 3.56 14.27, 2.37 12.87 C1.18 11.47, -3.47 9.21, -1.49 7.4 C0.5 5.58, 10.59 1.73, 14.28 2 C17.97 2.26, 20.82 8.77, 20.68 9 M14.18 -1.9 C16.57 -0.91, 18.36 4.23, 19.51 6.46 C20.66 8.7, 21.02 10.04, 21.07 11.49 C21.12 12.94, 21.6 14.36, 19.82 15.18 C18.04 16, 13.21 16.23, 10.39 16.41 C7.57 16.58, 4.28 17.2, 2.91 16.24 C1.55 15.28, 2.86 12.29, 2.22 10.64 C1.59 8.98, -2.24 8.09, -0.9 6.31 C0.43 4.53, 7.2 1.1, 10.22 -0.06 C13.23 -1.23, 16.38 -0.58, 17.18 -0.68 C17.99 -0.78, 15.44 -1.06, 15.05 -0.64" stroke="#e03131" stroke-width="4" fill="none"></path></g><g stroke-linecap="round"><g transform="translate(2192.397365155279 152.94595368991259) rotate(0 0.9033664579202423 24.662712428712254)"><path d="M-1.66 -1.63 C-1.3 5.92, 3.29 39.46, 3.47 47.63 M2.64 3.66 C2.71 11.43, 1.98 43.22, 2.41 50.95" stroke="#e03131" stroke-width="4" fill="none"></path></g></g><mask></mask><g stroke-linecap="round"><g transform="translate(2169.9212580720487 162.53060599696198) rotate(0 25.130140252658293 -0.8484655240217478)"><path d="M2.18 -0.57 C9.95 -0.55, 37.53 -1.86, 44.96 -1.54 M-0.08 -3.34 C8.74 -2.77, 42.85 1.61, 50.34 1.65" stroke="#e03131" stroke-width="4" fill="none"></path></g></g><mask></mask><g stroke-linecap="round"><g transform="translate(2174.1181199599096 218.7138132268829) rotate(0 8.451500017315311 -10.126619099949195)"><path d="M-1.88 -0.81 C0.89 -3.31, 15.66 -12.6, 18.78 -15.54 M2.3 -3.72 C4.49 -6.94, 13.11 -17.43, 16.48 -19.44" stroke="#e03131" stroke-width="4" fill="none"></path></g></g><mask></mask><g stroke-linecap="round"><g transform="translate(2194.1562684076885 200.89766729067503) rotate(0 8.424734934033381 9.608017900577693)"><path d="M-0.12 2.04 C2.73 4.74, 12.72 12.93, 15.2 15.37 M-3.62 0.68 C0.27 3.86, 16.5 15.31, 20.47 18.54" stroke="#e03131" stroke-width="4" fill="none"></path></g></g><mask></mask><g stroke-linecap="round" transform="translate(28.70178866881622 194.39082310610758) rotate(0 10.449446382606084 8.103452490925775)"><path d="M17.49 1.36 C18.87 2.53, 20.38 4.16, 20.72 5.95 C21.05 7.73, 20.91 10.6, 19.5 12.07 C18.09 13.53, 14.62 14.1, 12.26 14.75 C9.91 15.4, 6.93 16.4, 5.37 15.96 C3.81 15.53, 3.75 13.97, 2.9 12.15 C2.05 10.33, -0.28 7.12, 0.28 5.03 C0.84 2.94, 4.66 0.15, 6.26 -0.37 C7.87 -0.89, 7.69 0.56, 9.91 1.91 C12.13 3.26, 18.75 5.72, 19.58 7.74 C20.41 9.76, 15.01 13.67, 14.9 14.02 M16.46 -0.38 C17.45 0.24, 16.56 2.31, 17.17 4.25 C17.78 6.2, 20.14 9.4, 20.11 11.3 C20.08 13.21, 19.24 14.99, 17.01 15.69 C14.78 16.39, 8.79 16.18, 6.72 15.52 C4.65 14.85, 6.17 13.12, 4.6 11.7 C3.03 10.28, -1.88 8.26, -2.7 6.99 C-3.52 5.71, -2.52 4.7, -0.33 4.05 C1.87 3.41, 7.56 3.88, 10.46 3.1 C13.36 2.33, 16.46 -0.31, 17.07 -0.6 C17.69 -0.89, 14.22 0.59, 14.16 1.37" stroke="#e03131" stroke-width="4" fill="none"></path></g><g stroke-linecap="round"><g transform="translate(39.24708704474631 211.2664361694156) rotate(0 1.1582792594925877 25.692731724970955)"><path d="M2.19 1.75 C1.9 9.33, -0.97 40.05, -1.35 47.76 M-0.07 0.23 C0.43 8.04, 4.06 42.69, 3.63 51.15" stroke="#e03131" stroke-width="4" fill="none"></path></g></g><mask></mask><g stroke-linecap="round"><g transform="translate(16.770979961515764 220.851088476465) rotate(0 24.235416936823356 -0.2721895282938789)"><path d="M-2.63 -0.44 C4.58 -0.88, 37.54 -0.98, 45.45 -0.92 M1.14 -3.14 C9.09 -3.28, 42.86 1.52, 51.1 2.6" stroke="#e03131" stroke-width="4" fill="none"></path></g></g><mask></mask><g stroke-linecap="round"><g transform="translate(20.96784184937667 277.03429570638593) rotate(0 10.428973906606643 -10.893115821604312)"><path d="M-1.38 -0.19 C1.87 -2.94, 13.69 -13.82, 16.91 -16.93 M3.06 -2.76 C7.45 -6.37, 20.14 -19.31, 22.24 -21.59" stroke="#e03131" stroke-width="4" fill="none"></path></g></g><mask></mask><g stroke-linecap="round"><g transform="translate(41.00599029715556 259.21814977017806) rotate(0 7.183816175521827 8.179446240655082)"><path d="M-1.98 0.65 C0.97 3.16, 13.41 12.48, 16.35 14.91 M2.14 -1.47 C4.76 1.43, 10.37 14.62, 13.61 17.83" stroke="#e03131" stroke-width="4" fill="none"></path></g></g><mask></mask></svg>